<svg width="17" height="16" viewBox="0 0 17 16" fill="none" xmlns="http://www.w3.org/2000/svg">
<g id="pen">
<path id="Vector" d="M8.575 9.19999C9.23774 9.19999 9.775 8.66273 9.775 7.99999C9.775 7.33725 9.23774 6.79999 8.575 6.79999C7.91226 6.79999 7.375 7.33725 7.375 7.99999C7.375 8.66273 7.91226 9.19999 8.575 9.19999Z" stroke="#565D6D" stroke-width="0.8" stroke-miterlimit="10" stroke-linecap="round" stroke-linejoin="round"/>
<path id="Vector_2" d="M13.375 9.19999C14.0377 9.19999 14.575 8.66273 14.575 7.99999C14.575 7.33725 14.0377 6.79999 13.375 6.79999C12.7122 6.79999 12.175 7.33725 12.175 7.99999C12.175 8.66273 12.7122 9.19999 13.375 9.19999Z" stroke="#565D6D" stroke-width="0.8" stroke-miterlimit="10" stroke-linecap="round" stroke-linejoin="round"/>
<path id="Vector_3" d="M3.77501 9.19999C4.43775 9.19999 4.97501 8.66273 4.97501 7.99999C4.97501 7.33725 4.43775 6.79999 3.77501 6.79999C3.11227 6.79999 2.57501 7.33725 2.57501 7.99999C2.57501 8.66273 3.11227 9.19999 3.77501 9.19999Z" stroke="#565D6D" stroke-width="0.8" stroke-miterlimit="10" stroke-linecap="round" stroke-linejoin="round"/>
</g>
</svg>
