<?xml version="1.0" encoding="iso-8859-1"?>
<!-- Uploaded to: SVG Repo, www.svgrepo.com, Generator: SVG Repo Mixer Tools -->
<!DOCTYPE svg PUBLIC "-//W3C//DTD SVG 1.1//EN" "http://www.w3.org/Graphics/SVG/1.1/DTD/svg11.dtd">
<svg fill="#000000" height="800px" width="800px" version="1.1" id="Capa_1" xmlns="http://www.w3.org/2000/svg" xmlns:xlink="http://www.w3.org/1999/xlink" 
	 viewBox="0 0 436.357 436.357" xml:space="preserve">
<g>
	<path d="M435.125,250.57L370.702,34.155c-2.255-7.576-7.326-13.82-14.278-17.581c-6.954-3.763-14.956-4.59-22.533-2.334
		L21.172,107.33c-7.579,2.256-13.826,7.327-17.589,14.278c-3.764,6.951-4.594,14.951-2.339,22.527L65.666,360.55
		c2.255,7.576,7.326,13.82,14.278,17.581c4.387,2.373,9.19,3.579,14.043,3.579c2.838,0,5.693-0.413,8.49-1.245l109.639-32.637
		c3.97-1.182,6.23-5.358,5.049-9.328c-1.182-3.969-5.357-6.231-9.328-5.049L98.198,366.088c-3.74,1.112-7.688,0.705-11.116-1.15
		c-3.427-1.854-5.927-4.933-7.039-8.667L15.621,139.855c-1.112-3.735-0.703-7.679,1.152-11.106c1.856-3.428,4.938-5.93,8.678-7.042
		l312.719-93.09c3.74-1.112,7.687-0.705,11.116,1.15c3.428,1.854,5.928,4.932,7.039,8.667l64.423,216.415
		c2.295,7.711-2.114,15.853-9.83,18.149l-16.869,5.021c-3.97,1.182-6.23,5.358-5.049,9.328c1.183,3.97,5.356,6.231,9.328,5.049
		l16.869-5.021C430.84,282.718,439.779,266.207,435.125,250.57z"/>
	<path d="M370.187,262.69c1.183,3.97,5.357,6.232,9.328,5.049l20.794-6.19c1.906-0.568,3.51-1.869,4.456-3.619
		c0.947-1.75,1.16-3.803,0.593-5.709L344.879,49.052c-1.183-3.969-5.354-6.231-9.328-5.049L36.059,133.155
		c-3.97,1.182-6.23,5.358-5.049,9.328l60.479,203.169c0.97,3.256,3.953,5.363,7.186,5.362c0.708,0,1.429-0.101,2.143-0.313
		l87.404-26.018c3.97-1.182,6.23-5.358,5.049-9.328c-1.182-3.969-5.357-6.229-9.328-5.049l-80.216,23.878L47.527,145.392
		l285.115-84.873l56.2,188.793l-13.605,4.05C371.266,254.544,369.006,258.721,370.187,262.69z"/>
	<path d="M293.568,175.724c-4.769-6.053-11.608-9.887-19.261-10.795c-7.655-0.907-15.2,1.217-21.253,5.986l-75.758,59.678
		c-6.053,4.769-9.887,11.609-10.795,19.261c-0.909,7.652,1.217,15.2,5.986,21.253l111.286,141.271
		c5.687,7.217,14.148,10.985,22.693,10.985c6.249,0,12.543-2.017,17.82-6.175l75.757-59.678c6.054-4.769,9.888-11.609,10.797-19.261
		c0.908-7.652-1.218-15.2-5.986-21.253L293.568,175.724z M379.941,309.61l-97.515,76.818l-85.391-108.398l97.514-76.818
		L379.941,309.61z M181.397,251.622c0.436-3.673,2.276-6.957,5.182-9.246l75.758-59.678c2.466-1.943,5.449-2.972,8.542-2.972
		c0.551,0,1.105,0.033,1.66,0.099c3.674,0.436,6.957,2.276,9.246,5.182l3.483,4.422l-97.515,76.818l-3.483-4.421
		C181.981,258.918,180.961,255.295,181.397,251.622z M395.945,336.48c-0.437,3.673-2.276,6.957-5.183,9.246l-75.758,59.678
		c-5.997,4.724-14.722,3.69-19.448-2.309l-3.848-4.885l97.515-76.817l3.848,4.885C395.36,329.184,396.382,332.807,395.945,336.48z"
		/>
</g>
</svg>