<svg width="1097" height="780" viewBox="0 0 1097 780" fill="none" xmlns="http://www.w3.org/2000/svg">
<rect width="1096.88" height="780" fill="white"/>
<path opacity="0.1" d="M848.418 391.155C848.428 401.165 847.219 411.139 844.817 420.855C844.008 424.129 843.069 427.335 842 430.473C840.691 434.346 839.174 438.146 837.456 441.855C836.59 443.732 835.675 445.571 834.711 447.373C834.726 457.638 832.616 467.794 828.511 477.2C821.093 494.077 807.864 507.723 791.236 515.651C780.839 520.617 769.477 523.229 757.958 523.3H362.359C344.758 523.338 327.461 518.709 312.226 509.883L311.992 509.751C309.822 508.479 307.707 507.133 305.645 505.712C301.008 502.504 296.65 498.908 292.621 494.962C287.166 489.626 282.36 483.664 278.302 477.2C268.771 462.048 263.721 444.504 263.739 426.597C254.087 409.641 248.458 389.33 248.458 367.504C248.458 339.966 257.403 314.845 272.098 295.829C275.162 291.856 278.518 288.118 282.138 284.646C285.71 281.21 289.549 278.064 293.619 275.237C296.875 272.973 300.279 270.929 303.806 269.118C305.279 268.368 306.756 267.659 308.258 267.001C309.578 266.415 310.912 265.869 312.262 265.354C313.882 264.739 315.522 264.173 317.183 263.656C318.843 263.139 320.482 262.687 322.098 262.299C324.475 261.718 326.893 261.246 329.352 260.882C331.389 260.581 333.426 260.372 335.464 260.214C337.084 260.091 338.719 260.025 340.364 260.005H341.256C343.069 260.005 344.872 260.076 346.66 260.198C346.848 259.821 347.052 259.439 347.241 259.066C347.954 257.705 348.692 256.348 349.436 255.022C349.434 255.011 349.434 254.999 349.436 254.987C349.563 254.752 349.691 254.523 349.823 254.298C350.424 253.212 351.051 252.136 351.693 251.07C351.988 250.56 352.278 250.081 352.579 249.602C352.643 249.482 352.712 249.367 352.788 249.255C353.093 248.745 353.404 248.235 353.72 247.725C355.292 245.209 356.927 242.738 358.625 240.31L359.058 239.688C359.323 239.311 359.568 238.943 359.863 238.566C360.566 237.582 361.289 236.593 362.018 235.624C362.527 234.93 363.036 234.242 363.586 233.584C364.911 231.884 366.269 230.184 367.661 228.484C369.054 226.784 370.5 225.107 372.001 223.451C372.205 223.221 372.409 222.997 372.623 222.773L374.798 220.396C374.905 220.284 374.996 220.182 375.098 220.08C375.358 219.8 375.608 219.519 375.888 219.249C377.054 218.01 378.251 216.796 379.453 215.587C385.571 209.487 392.089 203.802 398.962 198.57C399.232 198.356 399.507 198.152 399.777 197.948C401.071 196.974 402.385 196.01 403.7 195.062C410.928 189.87 418.484 185.152 426.321 180.936C426.861 180.625 427.411 180.334 427.966 180.049C434.992 176.327 442.217 172.997 449.609 170.074C453.639 168.478 457.759 166.978 461.906 165.607C464.666 164.699 467.437 163.837 470.244 163.026C474.631 161.762 479.049 160.628 483.498 159.625C496.604 156.681 509.937 154.862 523.351 154.189C527.426 153.981 531.547 153.874 535.714 153.867C555.819 153.841 575.845 156.377 595.31 161.415C595.512 161.719 595.787 161.967 596.11 162.136C596.434 162.305 596.795 162.388 597.159 162.379H598.871C599.615 162.583 600.353 162.787 601.097 163.001C605.25 164.197 609.344 165.505 613.378 166.922L614.397 167.289C624.354 170.834 634.042 175.095 643.385 180.038C651.807 184.484 659.917 189.5 667.657 195.051C668.849 195.908 670.023 196.772 671.181 197.642C672.587 196.741 674.017 195.878 675.47 195.051C681.083 191.851 687.045 189.307 693.237 187.468C706.185 183.633 719.884 183.096 733.091 185.908C750.027 189.503 765.359 198.427 777.742 211.12C782.784 216.314 787.272 222.018 791.134 228.143C791.414 228.581 791.694 229.025 791.964 229.474C795.283 234.894 798.135 240.587 800.491 246.491C800.577 246.71 800.664 246.914 800.741 247.128C802.915 252.657 804.669 258.342 805.987 264.135C806.048 264.431 806.119 264.722 806.181 265.018C807.413 270.624 808.251 276.311 808.687 282.035C808.687 282.239 808.687 282.448 808.727 282.662C808.941 285.623 809.05 288.615 809.053 291.637C809.053 294.34 808.962 297.022 808.794 299.684C808.794 299.975 808.753 300.276 808.727 300.577C808.682 301.347 808.615 302.107 808.549 302.882C812.439 306.023 816.081 309.462 819.44 313.168C820.924 314.789 822.36 316.472 823.749 318.216C827.979 323.524 831.697 329.222 834.853 335.233C843.467 351.511 848.418 370.66 848.418 391.155Z" fill="#444444"/>
<path opacity="0.1" d="M768.765 514.628C768.765 517.791 757.871 520.754 738.862 523.301H379.309C363.312 523.335 347.591 519.131 333.744 511.118L333.531 510.998C338.994 509.007 348.855 507.15 362.276 505.474L362.878 505.4C368.897 504.664 375.624 503.965 382.975 503.303C383.161 503.303 383.35 503.275 383.536 503.252C389.369 502.733 395.574 502.247 402.151 501.793C402.36 501.793 402.563 501.756 402.772 501.747C405.309 501.565 407.898 501.392 410.54 501.228L411.559 501.163C430.795 499.969 452.66 499.015 476.373 498.385H476.401C479.722 498.293 483.078 498.211 486.47 498.14C490.242 498.05 494.06 497.972 497.924 497.904C500.873 497.839 503.859 497.793 506.854 497.746H506.924C520.438 497.543 534.4 497.441 548.678 497.441C583.983 497.441 617.354 498.084 646.923 499.242H647.006C651.552 499.418 656.015 499.612 660.367 499.811L664.071 499.987C668.981 500.222 673.765 500.474 678.423 500.742C733.191 503.858 768.765 508.919 768.765 514.628Z" fill="#444444" fill-opacity="0.59"/>
<g opacity="0.2">
<path opacity="0.2" d="M590.739 495.316C590.724 495.815 590.667 496.312 590.568 496.802C587.346 496.289 584.105 495.826 580.846 495.413C580.846 495.283 580.846 495.149 580.846 495.015C580.876 493.626 581.275 492.271 582.003 491.088C582.957 489.579 584.406 488.634 586.003 488.685C587.6 488.736 588.985 489.769 589.841 491.329C590.489 492.555 590.799 493.931 590.739 495.316Z" fill="#565D6D"/>
<path opacity="0.2" d="M591.005 487.403C591.118 483.822 588.993 480.85 586.258 480.763C583.524 480.677 581.215 483.509 581.102 487.09C580.989 490.671 583.114 493.644 585.849 493.731C588.583 493.817 590.892 490.984 591.005 487.403Z" fill="#565D6D"/>
<path opacity="0.2" d="M591.258 479.476C591.371 475.895 589.246 472.922 586.511 472.836C583.777 472.75 581.468 475.582 581.355 479.163C581.242 482.744 583.367 485.717 586.102 485.803C588.836 485.89 591.144 483.057 591.258 479.476Z" fill="#565D6D"/>
<path opacity="0.2" d="M591.506 471.549C591.619 467.968 589.494 464.995 586.759 464.909C584.025 464.822 581.716 467.655 581.603 471.236C581.49 474.817 583.615 477.79 586.35 477.876C589.084 477.963 591.393 475.13 591.506 471.549Z" fill="#565D6D"/>
<path opacity="0.2" d="M591.753 463.622C591.866 460.041 589.741 457.068 587.006 456.982C584.272 456.895 581.964 459.728 581.85 463.309C581.737 466.89 583.862 469.863 586.597 469.949C589.331 470.036 591.64 467.203 591.753 463.622Z" fill="#565D6D"/>
<path opacity="0.2" d="M569.952 408.619C569.3 407.736 568.712 406.808 568.193 405.841L581.276 404.114L567.193 403.776C565.936 400.795 565.301 397.588 565.325 394.353C565.35 391.117 566.034 387.921 567.336 384.959L585.91 395.354L568.896 382C570.613 379.224 572.883 376.831 575.566 374.972C578.248 373.112 581.285 371.826 584.487 371.193C587.689 370.561 590.986 370.595 594.174 371.294C597.362 371.993 600.372 373.342 603.015 375.257C605.658 377.172 607.879 379.611 609.537 382.422C611.195 385.234 612.256 388.357 612.653 391.597C613.051 394.837 612.776 398.124 611.846 401.253C610.916 404.381 609.351 407.285 607.248 409.782C608.262 411.155 609.124 412.634 609.818 414.194L592.646 422.436L610.855 416.958C612.001 420.742 612.186 424.753 611.392 428.626C610.598 432.5 608.851 436.114 606.308 439.142C608.952 442.729 610.533 446.988 610.87 451.431C611.207 455.875 610.288 460.323 608.216 464.269C606.144 468.214 603.004 471.497 599.155 473.741C595.306 475.986 590.903 477.101 586.449 476.961C581.996 476.821 577.672 475.429 573.972 472.947C570.272 470.464 567.345 466.99 565.526 462.922C563.707 458.855 563.069 454.357 563.685 449.943C564.302 445.53 566.148 441.379 569.012 437.966C565.854 433.679 564.228 428.454 564.396 423.132C564.564 417.81 566.516 412.699 569.938 408.619H569.952Z" fill="#444444" fill-opacity="0.59"/>
<path opacity="0.1" d="M611.864 424.631C611.702 429.956 609.744 435.07 606.308 439.142C608.952 442.729 610.533 446.988 610.87 451.431C611.207 455.875 610.288 460.323 608.216 464.269C606.144 468.214 603.004 471.497 599.155 473.741C595.306 475.986 590.903 477.101 586.449 476.961C581.996 476.821 577.672 475.429 573.972 472.947C570.272 470.464 567.345 466.99 565.526 462.922C563.707 458.854 563.069 454.357 563.685 449.943C564.302 445.53 566.148 441.379 569.012 437.966C565.971 433.831 611.947 421.968 611.864 424.631Z" fill="black"/>
</g>
<g opacity="0.2">
<path opacity="0.2" d="M520.369 495.316C520.354 495.815 520.297 496.312 520.198 496.802C516.976 496.289 513.735 495.826 510.476 495.413C510.476 495.283 510.476 495.149 510.476 495.015C510.506 493.626 510.905 492.271 511.633 491.088C512.587 489.579 514.036 488.634 515.633 488.685C517.23 488.736 518.614 489.769 519.471 491.329C520.119 492.555 520.429 493.931 520.369 495.316Z" fill="#565D6D"/>
<path opacity="0.2" d="M520.63 487.405C520.743 483.824 518.618 480.852 515.883 480.765C513.149 480.679 510.84 483.511 510.727 487.092C510.614 490.673 512.739 493.646 515.474 493.733C518.208 493.819 520.517 490.986 520.63 487.405Z" fill="#565D6D"/>
<path opacity="0.2" d="M520.883 479.478C520.996 475.897 518.871 472.924 516.136 472.838C513.402 472.751 511.093 475.584 510.98 479.165C510.867 482.746 512.992 485.719 515.727 485.805C518.461 485.892 520.769 483.059 520.883 479.478Z" fill="#565D6D"/>
<path opacity="0.2" d="M521.131 471.551C521.244 467.97 519.119 464.997 516.384 464.911C513.65 464.824 511.341 467.657 511.228 471.238C511.115 474.819 513.24 477.792 515.975 477.878C518.709 477.965 521.018 475.132 521.131 471.551Z" fill="#565D6D"/>
<path opacity="0.2" d="M521.378 463.624C521.491 460.043 519.366 457.07 516.631 456.984C513.897 456.897 511.589 459.73 511.475 463.311C511.362 466.892 513.487 469.865 516.222 469.951C518.956 470.038 521.265 467.205 521.378 463.624Z" fill="#565D6D"/>
<path opacity="0.2" d="M499.582 408.619C498.93 407.736 498.342 406.808 497.823 405.841L510.906 404.114L496.823 403.776C495.566 400.795 494.93 397.588 494.955 394.353C494.98 391.117 495.664 387.921 496.966 384.959L515.54 395.354L498.526 382C500.243 379.224 502.513 376.831 505.195 374.972C507.878 373.112 510.915 371.826 514.117 371.193C517.318 370.561 520.616 370.595 523.804 371.294C526.992 371.993 530.002 373.342 532.645 375.257C535.288 377.172 537.508 379.611 539.167 382.422C540.825 385.234 541.886 388.357 542.283 391.597C542.68 394.837 542.405 398.124 541.475 401.253C540.545 404.381 538.98 407.285 536.878 409.782C537.892 411.155 538.754 412.634 539.447 414.194L522.276 422.436L540.484 416.958C541.631 420.742 541.816 424.753 541.022 428.626C540.228 432.5 538.481 436.114 535.938 439.142C538.582 442.729 540.163 446.988 540.5 451.431C540.837 455.875 539.918 460.323 537.846 464.269C535.774 468.214 532.634 471.497 528.785 473.741C524.936 475.986 520.533 477.101 516.079 476.961C511.626 476.821 507.302 475.429 503.602 472.947C499.901 470.464 496.975 466.99 495.155 462.922C493.336 458.855 492.699 454.357 493.315 449.943C493.932 445.53 495.778 441.379 498.642 437.966C495.484 433.679 493.858 428.454 494.026 423.132C494.194 417.81 496.146 412.699 499.568 408.619H499.582Z" fill="#444444" fill-opacity="0.59"/>
<path opacity="0.1" d="M541.494 424.631C541.332 429.956 539.374 435.07 535.938 439.142C538.582 442.729 540.163 446.988 540.5 451.431C540.837 455.875 539.918 460.323 537.846 464.269C535.774 468.214 532.634 471.497 528.785 473.741C524.936 475.986 520.533 477.101 516.079 476.961C511.626 476.821 507.302 475.429 503.602 472.947C499.901 470.464 496.975 466.99 495.155 462.922C493.336 458.855 492.699 454.357 493.315 449.943C493.932 445.53 495.778 441.379 498.642 437.966C495.6 433.831 541.577 421.968 541.494 424.631Z" fill="black"/>
</g>
<g opacity="0.2">
<path opacity="0.2" d="M712.589 500.381C712.554 501.327 712.441 502.269 712.251 503.196C706.047 502.205 699.799 501.319 693.506 500.538C693.506 500.288 693.506 500.034 693.506 499.774C693.565 497.101 694.335 494.491 695.737 492.213C697.589 489.31 700.367 487.491 703.436 487.583C706.506 487.676 709.177 489.671 710.844 492.676C712.101 495.044 712.703 497.703 712.589 500.381Z" fill="#B4DD7F"/>
<path opacity="0.2" d="M713.093 485.137C713.311 478.241 709.218 472.516 703.951 472.349C698.684 472.183 694.237 477.638 694.02 484.534C693.802 491.43 697.895 497.155 703.162 497.321C708.429 497.488 712.875 492.033 713.093 485.137Z" fill="#B4DD7F"/>
<path opacity="0.2" d="M713.575 469.875C713.793 462.979 709.699 457.254 704.432 457.088C699.165 456.921 694.719 462.377 694.501 469.272C694.283 476.168 698.376 481.894 703.643 482.06C708.91 482.226 713.357 476.771 713.575 469.875Z" fill="#B4DD7F"/>
<path opacity="0.2" d="M714.06 454.614C714.278 447.718 710.185 441.993 704.918 441.827C699.651 441.66 695.204 447.115 694.986 454.011C694.768 460.907 698.862 466.632 704.129 466.799C709.396 466.965 713.842 461.51 714.06 454.614Z" fill="#B4DD7F"/>
<path opacity="0.2" d="M713.999 438.658C714.206 431.759 710.102 426.038 704.832 425.88C699.562 425.721 695.123 431.186 694.916 438.086C694.709 444.985 698.813 450.706 704.083 450.864C709.352 451.022 713.792 445.557 713.999 438.658Z" fill="#B4DD7F"/>
<path opacity="0.2" d="M672.567 333.48C671.318 331.78 670.187 329.997 669.183 328.141L694.368 324.817L667.261 324.164C664.84 318.425 663.615 312.252 663.661 306.023C663.707 299.794 665.024 293.64 667.53 287.937L703.293 307.944L670.544 282.237C673.855 276.905 678.229 272.312 683.393 268.745C688.557 265.178 694.4 262.712 700.559 261.502C706.717 260.292 713.059 260.364 719.188 261.713C725.318 263.061 731.104 265.658 736.186 269.342C741.268 273.025 745.537 277.715 748.727 283.121C751.917 288.527 753.96 294.531 754.728 300.761C755.496 306.991 754.973 313.312 753.191 319.331C751.409 325.35 748.407 330.937 744.372 335.744C746.322 338.39 747.982 341.239 749.321 344.241L716.261 360.118L751.312 349.561C753.521 356.837 753.88 364.549 752.358 371.999C750.836 379.449 747.48 386.402 742.594 392.228C747.682 399.134 750.725 407.333 751.374 415.887C752.022 424.441 750.251 433.004 746.263 440.599C742.275 448.194 736.23 454.512 728.82 458.833C721.41 463.154 712.934 465.301 704.361 465.031C695.788 464.761 687.464 462.083 680.341 457.304C673.218 452.525 667.583 445.838 664.081 438.008C660.579 430.177 659.351 421.518 660.537 413.022C661.723 404.527 665.276 396.536 670.789 389.964C664.712 381.712 661.584 371.656 661.906 361.412C662.229 351.168 665.983 341.33 672.567 333.475V333.48Z" fill="#B4DD7F"/>
<path opacity="0.1" d="M753.261 364.299C752.957 374.545 749.205 384.389 742.613 392.238C747.701 399.144 750.743 407.342 751.392 415.896C752.041 424.45 750.27 433.014 746.282 440.608C742.293 448.203 736.248 454.522 728.838 458.842C721.428 463.163 712.952 465.311 704.379 465.04C695.806 464.77 687.483 462.092 680.359 457.313C673.236 452.535 667.602 445.848 664.099 438.017C660.597 430.186 659.369 421.528 660.555 413.032C661.742 404.536 665.295 396.545 670.808 389.973C664.909 382.005 753.423 359.173 753.261 364.299Z" fill="black"/>
</g>
<path d="M348.86 501.196L353.717 501.182H360.564L369.221 360.525L454.957 217.438L451.23 213.437V203.306L358.508 357.21L348.86 501.196Z" fill="#F1C0C0"/>
<path opacity="0.1" d="M354.235 501.182H360.564L369.221 360.525L454.957 217.438L451.23 213.437L362.795 358.381L354.235 501.182Z" fill="black"/>
<path d="M334.55 502.367L556.701 519.37L556.891 519.383L771.885 506.16L772.047 506.15V497.07L535.15 492.723L337.508 492.533H336.064L335.906 493.551L334.55 502.367Z" fill="#F1C0C0"/>
<path opacity="0.1" d="M334.55 502.367L556.701 519.37L556.891 519.383L771.885 506.16L772.047 505.984V497.26H771.857L556.701 504.446L337.508 492.533H337.476L337.087 492.787L335.906 493.551L334.55 502.367Z" fill="black"/>
<path opacity="0.1" d="M334.55 502.367L556.701 519.37V504.446L337.087 492.788L335.906 493.551L334.55 502.367Z" fill="black"/>
<path d="M451.202 213.247L549.141 318.381L546.114 503.312L554.433 504.317L554.572 504.335H562.891L563.887 326.322L747.279 387.589L750.372 496.677L757.066 497.427L759.335 497.682L754.085 380.023L562.373 312.709L457.253 203.413H451.202V213.247Z" fill="#F1C0C0"/>
<path opacity="0.1" d="M563.132 322.919L563.886 326.322L747.279 387.589L750.371 496.677L757.066 497.427L751.816 385.32L563.132 322.919Z" fill="black"/>
<path opacity="0.1" d="M451.202 213.247L549.141 318.381L546.114 503.312L554.433 504.317L556.701 312.329L451.202 203.413V213.247Z" fill="black"/>
<path d="M563.489 397.136L630.753 410.383L630.776 410.388L748.585 433.599L753.979 431.437L753.96 431.057L753.608 423.533L563.559 385.126L563.489 397.136Z" fill="#F1C0C0"/>
<path opacity="0.1" d="M630.775 410.388L748.585 433.599L753.978 431.437L753.96 431.057L630.775 410.388Z" fill="black"/>
<path d="M635.28 350.172L637.1 450.342L638.04 501.733L646.322 501.455L651.535 501.279L649.914 351.621L646.322 350.427L645.535 350.172H635.28Z" fill="#F1C0C0"/>
<path opacity="0.1" d="M635.354 350.149V350.172L637.099 450.342L638.039 501.733L646.321 501.455V350.149H635.354Z" fill="black"/>
<path d="M505.544 375.754C506.03 376.018 506.495 376.32 506.933 376.657C507.452 377.111 507.918 377.622 508.322 378.18C510.308 380.75 512.141 383.737 511.947 386.978C511.951 387.449 511.862 387.917 511.685 388.354C511.508 388.791 511.246 389.189 510.915 389.524C510.095 390.223 508.919 390.256 507.845 390.256C506.678 390.256 505.452 390.256 504.442 389.654C503.433 389.052 502.591 387.881 501.396 387.908C501.227 387.936 501.055 387.936 500.887 387.908C500.475 387.774 500.391 387.232 500.123 386.89C499.66 386.274 498.683 386.427 497.956 386.695C497.229 386.964 496.424 387.367 495.706 387.056C495.29 386.837 494.949 386.496 494.729 386.079C493.012 383.301 492.646 379.963 492.322 376.736C492.123 374.772 490.604 368.077 494.794 369.6C496.646 370.267 498.378 371.601 500.063 372.578L505.544 375.754Z" fill="#565D6D"/>
<path d="M501.406 376.416C501.78 376.685 502.234 376.822 502.694 376.803C503.155 376.785 503.596 376.613 503.947 376.314C504.637 375.691 505.076 374.839 505.184 373.916C505.647 373.772 505.883 374.379 506.179 374.749C506.697 375.379 507.753 375.37 508.225 376.041C508.554 376.504 508.48 377.148 508.711 377.671C509.012 378.347 509.758 378.699 510.267 379.245C510.748 379.842 511.095 380.535 511.285 381.278L512.045 383.556C512.408 384.503 512.642 385.495 512.739 386.505C512.787 387.01 512.734 387.52 512.583 388.004C512.432 388.488 512.186 388.937 511.859 389.325C510.841 390.423 509.17 390.538 507.693 390.506C507.2 390.516 506.707 390.459 506.23 390.335C504.92 389.927 504.082 388.607 503.734 387.279C503.387 385.95 503.424 384.556 503.221 383.195C503.001 381.858 502.612 380.554 502.063 379.315C501.656 378.352 500.535 376.916 500.554 375.893C500.887 375.893 501.128 376.199 501.406 376.416Z" fill="#565D6D"/>
<path d="M503.067 371.726C502.851 371.068 502.725 370.384 502.692 369.693C502.692 368.304 503.326 366.998 503.965 365.757L498.674 366.475C498.035 366.563 497.322 366.693 496.961 367.225C496.824 367.489 496.752 367.782 496.752 368.079C496.752 368.377 496.824 368.67 496.961 368.934C497.226 369.462 497.437 370.016 497.59 370.587C497.602 371.086 497.66 371.584 497.762 372.073C497.926 372.432 498.157 372.758 498.442 373.031C499.956 374.708 501.09 376.685 502.22 378.643C502.188 378.588 505.41 376.092 505.28 375.277C505.206 374.814 504.276 374.258 503.979 373.814C503.57 373.169 503.262 372.464 503.067 371.726Z" fill="#BE6F72"/>
<path d="M548.437 353.635V358.196L470.35 373.43L466.299 375.884H452.322V373.314L529.044 354.774L548.437 353.635Z" fill="#F1C0C0"/>
<path opacity="0.1" d="M548.437 358.196L470.35 373.43L466.299 375.884H452.322L529.613 359.34L548.437 358.196Z" fill="black"/>
<path d="M485.743 483.106C484.873 482.052 483.672 481.324 482.336 481.039C480.999 480.755 479.606 480.932 478.382 481.541C478.12 481.664 477.89 481.844 477.706 482.069C477.243 482.717 477.54 483.61 477.581 484.411C477.688 486.365 476.132 487.954 474.734 489.319C473.984 490.051 473.22 490.834 472.882 491.829C472.544 492.825 472.794 494.089 473.702 494.607C474.098 494.806 474.529 494.925 474.97 494.959C476.45 495.248 477.967 495.29 479.461 495.084C480.938 494.802 482.387 493.964 483.026 492.602C483.149 492.233 483.353 491.896 483.623 491.616C484.438 490.972 485.688 491.727 486.614 491.269C487.378 490.889 487.41 490.292 487.419 489.505C487.447 487.328 487.123 484.865 485.743 483.106Z" fill="#444444" fill-opacity="0.59"/>
<path d="M496.855 483.022C497.424 484.522 497.503 486.157 497.577 487.759C497.618 488.685 497.646 489.676 497.146 490.458C496.646 491.241 495.669 491.653 494.734 491.847C492.804 492.246 490.568 491.871 489.322 490.338C488.368 489.167 488.169 487.56 488.345 486.041C488.493 484.796 488.808 483.337 487.915 482.453C487.683 482.217 487.382 482.05 487.169 481.795C486.706 481.23 486.781 480.378 487.03 479.684C487.356 479.02 487.6 478.319 487.757 477.596C487.794 477.253 494.026 477.836 494.6 478.119C495.382 478.503 495.262 479.147 495.498 479.925C495.827 481.008 496.456 481.985 496.855 483.022Z" fill="#444444" fill-opacity="0.59"/>
<path d="M497.998 416.505C499.22 417.296 499.692 418.852 499.882 420.297C500.405 424.256 499.489 428.256 499.419 432.252C499.354 437.85 500.975 443.55 499.59 448.972C498.762 452.213 499.465 455.917 498.688 459.191C498.456 460.163 498.03 461.08 497.808 462.052C497.345 464.159 497.831 466.363 498.484 468.423C498.692 468.979 498.825 469.56 498.877 470.15C498.846 471.06 498.615 471.951 498.202 472.762L495.424 479.332C495.114 480.068 493.891 480.189 493.109 480.286C491.637 480.462 489.993 480.587 488.822 479.675C487.651 478.763 487.368 477.235 487.188 475.808C486.841 473.071 486.687 470.312 486.725 467.553C486.776 466.833 486.712 466.109 486.535 465.409C486.28 464.617 485.72 463.932 485.567 463.094C485.373 462.01 485.924 460.945 486.128 459.853C486.267 458.855 486.252 457.841 486.081 456.848C485.901 455.366 485.692 453.884 485.456 452.412C485.123 450.352 485.6 448.319 485.919 446.254C486.22 444.314 485.836 442.337 485.456 440.41C485.489 441.974 485.294 443.534 484.878 445.041C484.632 445.777 484.28 446.481 484.067 447.231C483.118 450.597 485.141 454.13 484.854 457.616C484.72 459.246 484.081 460.858 484.262 462.464C484.387 463.64 484.933 464.719 485.308 465.84C485.683 466.96 485.878 468.243 485.308 469.289C483.804 472.132 484.928 475.998 486.276 478.915C486.549 479.433 486.787 479.968 486.989 480.517C487.387 481.832 487.053 483.245 487.16 484.615C486.772 484.679 486.375 484.653 485.999 484.54C485.623 484.427 485.277 484.229 484.989 483.962C484.785 483.749 484.618 483.499 484.419 483.277C483.863 482.747 483.205 482.336 482.484 482.069C482.061 481.832 481.579 481.721 481.095 481.749C480.586 481.891 480.129 482.176 479.776 482.569C479.318 482.971 478.832 483.341 478.322 483.675C478.105 483.842 477.851 483.955 477.581 484.004C477.446 484.025 477.307 484.003 477.185 483.94C477.063 483.878 476.963 483.779 476.901 483.657C476.872 483.579 476.855 483.498 476.85 483.416C476.678 482.018 476.587 480.611 476.577 479.202C476.577 476.781 473.679 475.114 473.313 472.72C473.021 470.789 473.563 468.821 473.382 466.877C473.294 465.877 473.017 464.895 473.035 463.895C473.035 463.247 473.183 462.612 473.234 461.969C473.277 461.254 473.266 460.538 473.202 459.825L473.058 457.589C472.919 455.38 472.767 453.125 471.896 451.106C470.864 448.749 470.253 446.229 470.091 443.661C469.998 442.04 470.058 440.42 469.873 438.794C469.706 437.327 469.336 435.868 469.442 434.396C469.53 433.257 469.905 432.155 469.993 431.016C470.174 428.826 469.341 426.696 468.688 424.598C468.035 422.501 467.554 420.176 468.41 418.153C468.532 417.821 468.736 417.525 469.003 417.292C469.331 417.074 469.705 416.935 470.095 416.884C478.038 415.215 486.18 414.696 494.271 415.342C495.59 415.417 496.87 415.816 497.998 416.505Z" fill="#565D6D"/>
<path d="M471.716 367.327C475.813 367.327 479.133 364.006 479.133 359.909C479.133 355.813 475.813 352.492 471.716 352.492C467.62 352.492 464.3 355.813 464.3 359.909C464.3 364.006 467.62 367.327 471.716 367.327Z" fill="#BE6F72"/>
<path d="M470.281 369.174C470.388 369.598 470.388 370.042 470.281 370.466C470.164 370.763 470 371.038 469.795 371.281C469.077 372.207 468.283 373.072 467.42 373.865C467.859 374.847 468.651 375.628 469.638 376.055C470.617 376.472 471.645 376.766 472.698 376.93C473.223 377.068 473.77 377.106 474.309 377.041C474.806 376.916 475.276 376.703 475.698 376.412L479.818 373.944C480.44 373.607 481.015 373.191 481.531 372.707C482.287 371.931 482.714 370.893 482.725 369.809C482.745 369.615 482.692 369.42 482.577 369.262C482.419 369.125 482.221 369.042 482.012 369.026C480.563 368.707 479.42 367.531 478.772 366.197C478.186 364.83 477.807 363.384 477.647 361.905L473.253 364.22C472.6 364.567 471.952 364.915 471.276 365.216C470.846 365.41 469.975 365.572 469.67 365.966C469.087 366.693 470.128 368.299 470.281 369.174Z" fill="#BE6F72"/>
<path d="M467.448 372.517C466.823 373.03 466.334 373.691 466.027 374.439C465.74 375.365 466.027 376.342 466.286 377.259C467.501 381.166 468.43 385.157 469.064 389.2C469.453 391.978 469.596 394.798 469.786 397.609C470.175 403.341 470.74 412.481 471.494 418.176C474.272 418.301 476.98 417.491 479.735 417.194C484.883 416.648 490.184 417.898 495.226 416.731C494.004 411.902 492.781 403.656 491.559 398.831C491.018 396.93 490.643 394.986 490.439 393.02C490.332 391.608 490.397 390.191 490.416 388.77C490.457 385.991 490.304 383.213 490.152 380.435C489.976 377.194 489.8 373.953 489.031 370.781C488.978 370.377 488.788 370.003 488.494 369.721C488.031 369.383 487.429 369.503 486.879 369.577C485.192 369.792 483.484 369.387 482.073 368.438C481.462 368.022 480.642 367.512 480.073 367.975C479.83 368.255 479.67 368.596 479.61 368.961C479.358 369.617 478.969 370.21 478.469 370.703C477.97 371.196 477.37 371.576 476.712 371.818C475.393 372.296 474.011 372.58 472.61 372.661C472.181 372.753 471.734 372.703 471.337 372.517C470.68 372.115 470.633 370.665 469.805 370.568C469.078 370.485 467.939 372.05 467.448 372.517Z" fill="#565D6D"/>
<path d="M478.401 383.824C476.693 382.19 475.943 379.819 474.698 377.805C473.85 376.451 472.766 375.259 471.499 374.286C470.861 373.865 470.277 373.369 469.758 372.809C469.318 372.267 468.985 371.545 468.318 371.337C468.043 371.277 467.757 371.285 467.485 371.36C467.213 371.435 466.964 371.575 466.758 371.767C466.35 372.156 465.963 372.568 465.6 372.999C463.637 375.032 460.188 375.314 458.633 377.666C458.213 378.165 457.928 378.763 457.804 379.403C457.356 382.826 458.241 386.291 460.276 389.08C460.67 389.726 461.275 390.217 461.989 390.469C461.893 391.332 462.007 392.206 462.323 393.015C463.18 395.946 464.233 398.815 465.475 401.605C465.178 402.695 464.971 403.809 464.855 404.934C464.531 407.763 464.832 410.633 464.526 413.467C464.276 415.782 463.6 418.037 463.577 420.357C463.577 420.727 463.61 421.167 463.929 421.357C464.099 421.444 464.289 421.484 464.48 421.473L470.174 421.644C473.48 421.741 476.818 421.839 480.073 421.227C480.506 421.163 480.926 421.03 481.318 420.834C482.42 420.218 482.785 418.829 482.961 417.593C483.191 415.989 483.283 414.369 483.235 412.749C483.924 414.93 484.744 417.185 486.827 418.13C487.929 418.63 489.188 418.593 490.397 418.56C493.001 418.444 495.596 418.177 498.17 417.759C498.328 417.779 498.489 417.761 498.64 417.708C498.79 417.654 498.926 417.566 499.036 417.45C499.147 417.334 499.228 417.194 499.275 417.041C499.321 416.889 499.331 416.727 499.304 416.569L499.332 414.041C499.387 408.906 498.114 403.998 497.619 398.887C497.461 397.275 497.475 395.645 497.082 394.067C496.92 393.404 496.684 392.756 496.54 392.089C496.416 391.437 496.339 390.776 496.309 390.112L495.947 385.019C495.776 382.662 495.531 380.389 495.35 378.037C495.251 375.746 494.919 373.472 494.359 371.249C493.957 369.86 493.119 368.285 491.67 368.114C490.897 368.026 490.147 368.364 489.41 368.6C487.601 369.17 485.659 369.162 483.855 368.577C483.297 368.357 482.716 368.202 482.123 368.114C481.825 368.074 481.521 368.113 481.243 368.229C480.965 368.344 480.722 368.531 480.54 368.772C480.36 369.133 480.276 369.535 480.295 369.938C480.077 374.564 479.674 379.329 478.401 383.824Z" fill="#444444" fill-opacity="0.59"/>
<path d="M470.953 383.963C468.818 381.713 466.629 379.421 463.879 377.99C462.795 377.426 461.564 377 460.365 377.213C459.166 377.426 458.05 378.467 458.106 379.685C458.143 380.44 458.601 381.107 458.744 381.847C458.911 382.681 458.67 383.57 458.93 384.375C459.14 384.906 459.455 385.39 459.855 385.797L463.133 389.682C464.522 391.302 465.911 392.946 467.698 394.067C469.485 395.187 471.8 395.71 473.763 394.914C475.159 394.265 476.321 393.199 477.087 391.863C477.902 390.566 478.476 389.149 479.24 387.811C480.429 385.673 481.997 383.77 483.869 382.195C482.906 381.945 481.698 381.593 481.091 380.806C480.919 380.555 480.772 380.289 480.652 380.009L479.902 378.389C479.647 378.375 479.392 378.415 479.153 378.505C478.914 378.595 478.696 378.734 478.513 378.912C478.191 379.284 477.846 379.635 477.48 379.963C476.828 380.454 475.943 380.588 475.351 381.148C475.121 381.389 474.914 381.649 474.73 381.926C474.282 382.515 473.713 383.002 473.062 383.353C472.41 383.705 471.691 383.913 470.953 383.963Z" fill="#565D6D"/>
<path d="M484.041 374.282C485.647 371.351 485.573 367.836 486.032 364.526C486.081 363.649 486.389 362.806 486.916 362.104C487.842 361.058 489.476 361.044 490.874 361.178C491.286 361.224 491.8 361.419 491.777 361.831C491.744 361.979 491.672 362.115 491.569 362.225C490.213 363.974 489.416 366.091 489.282 368.299C490.008 368.804 491.133 367.767 491.832 368.299C492.295 368.688 492.082 369.457 491.805 370.013C491.16 371.3 490.494 372.578 489.809 373.846C489.262 374.965 488.549 375.993 487.694 376.898C487.106 377.463 486.416 377.907 485.819 378.463C484.43 379.764 483.592 381.602 482.157 382.871C482.035 383.002 481.871 383.086 481.694 383.107C481.511 383.094 481.339 383.017 481.208 382.889C480.491 382.306 479.896 381.587 479.458 380.773C478.911 379.764 478.995 379.467 479.856 378.754C481.467 377.481 483.036 376.115 484.041 374.282Z" fill="#BE6F72"/>
<path d="M468.267 381.972C468.545 382.144 468.888 382.338 469.193 382.195C469.318 382.119 469.424 382.016 469.503 381.894C470.033 381.187 470.474 380.419 470.818 379.606C470.877 379.492 470.91 379.365 470.915 379.236C470.915 378.94 470.651 378.722 470.406 378.551C469.091 377.713 467.678 377.041 466.198 376.55C464.976 376.087 463.698 375.685 462.401 375.8C461.914 375.833 461.439 375.964 461.004 376.185C460.569 376.406 460.183 376.713 459.869 377.088C458.943 378.278 460.494 378.639 461.466 379.069C463.716 380.093 466.151 380.685 468.267 381.972Z" fill="#444444" fill-opacity="0.59"/>
<path opacity="0.1" d="M466.808 389.844C466.792 389.949 466.802 390.057 466.836 390.159C466.869 390.26 466.927 390.352 467.003 390.427C467.137 389.77 466.961 389.075 467.1 388.413C467.303 387.418 468.271 386.667 468.354 385.667C466.581 385.32 466.822 388.77 466.808 389.844Z" fill="black"/>
<path opacity="0.2" d="M548.437 353.635V358.196L529.613 359.34L529.044 354.774L548.437 353.635Z" fill="black"/>
<path d="M465.04 361.011C466.216 360.053 465.536 358.043 466.332 356.756C466.795 356.052 467.577 355.682 468.346 355.367C469.273 354.933 470.267 354.658 471.286 354.552C471.796 354.503 472.31 354.57 472.791 354.747C473.272 354.924 473.707 355.207 474.063 355.575C474.364 355.918 474.568 356.335 474.851 356.691C475.2 357.107 475.656 357.421 476.17 357.599C476.683 357.776 477.235 357.812 477.767 357.701C478.383 357.562 479.022 357.094 478.98 356.465C478.911 356.082 478.715 355.733 478.425 355.474L477.101 354.006C475.596 352.339 473.925 350.57 471.716 350.154C470.179 349.862 468.605 350.274 467.124 350.769C466.526 350.968 465.855 351.265 465.689 351.871C465.577 352.288 465.744 352.742 465.647 353.163C465.457 354.001 464.383 354.284 463.883 354.987C463.383 355.691 463.536 356.525 463.392 357.303C463.249 358.08 462.832 358.84 462.781 359.645C462.749 360.132 462.994 361.035 463.54 361.21C464.087 361.386 464.702 360.433 465.04 361.011Z" fill="#565D6D"/>
<path d="M478.53 355.798C478.14 353.761 477.299 351.837 476.068 350.167C474.973 348.608 473.45 347.398 471.683 346.686C470.8 346.34 469.85 346.2 468.905 346.274C467.959 346.349 467.043 346.637 466.225 347.116C465.01 347.983 464.065 349.176 463.498 350.556C462.299 353.14 461.855 356.298 463.248 358.78C463.804 358.104 464.757 358.409 465.6 358.164C466.656 357.863 467.549 357.159 468.554 356.719C471.586 355.381 475.29 356.465 478.53 355.798Z" fill="#FED253"/>
<path opacity="0.1" d="M463.957 355.654C463.85 354.821 463.781 353.853 464.373 353.26C464.403 353.224 464.44 353.195 464.483 353.176C464.526 353.157 464.572 353.147 464.619 353.149C464.66 353.163 464.698 353.184 464.731 353.213C464.764 353.242 464.79 353.277 464.809 353.316C465.151 353.856 465.442 354.426 465.679 355.02C465.334 354.94 464.973 354.966 464.643 355.094C464.313 355.222 464.029 355.446 463.827 355.738" fill="black"/>
<path opacity="0.1" d="M474.776 353.302L474.61 351.649C474.583 351.513 474.594 351.372 474.642 351.242C474.712 351.133 474.819 351.053 474.944 351.019C475.069 350.985 475.202 350.998 475.318 351.056C475.546 351.183 475.733 351.37 475.86 351.598C476.245 352.19 476.565 352.822 476.813 353.483C476.068 353.339 475.3 353.348 474.559 353.51" fill="black"/>
<path opacity="0.1" d="M478.921 420.389V424.168L475.731 424.381H458.953V420.389H478.921Z" fill="black"/>
<path d="M478.92 420.389V424.381H458.952L405.906 357.923V354.784H417.027L478.92 420.389Z" fill="#F1C0C0"/>
<path opacity="0.1" d="M478.92 420.389V424.381H458.952L405.906 357.923V354.784H417.027L478.92 420.389Z" fill="black"/>
<path opacity="0.1" d="M478.92 420.389V424.381H458.952L405.906 357.923V354.784L459.239 420.389H478.92Z" fill="black"/>
<path d="M412.86 487C412.895 487.188 412.891 487.381 412.848 487.567C412.805 487.753 412.724 487.928 412.61 488.081C412.496 488.235 412.352 488.363 412.186 488.458C412.02 488.553 411.837 488.613 411.647 488.634C410.36 489.069 408.994 489.5 408.082 490.486C407.17 491.473 406.99 493.301 408.082 494.102C408.641 494.439 409.282 494.614 409.934 494.607C412.031 494.751 414.217 494.723 416.119 493.834C417.48 493.204 418.763 492.13 420.258 492.227C421.031 492.274 421.855 492.635 422.545 492.283C423.235 491.931 423.429 490.949 423.434 490.13C423.452 488.419 423.194 486.716 422.67 485.087C422.601 484.865 419.656 484.694 419.305 484.624L415.735 484.161C415.059 484.073 413.601 483.564 413.068 484.129C412.536 484.694 412.86 486.328 412.86 487Z" fill="#444444" fill-opacity="0.59"/>
<path d="M434.161 475.443C434.312 476.276 434.557 477.09 434.892 477.869C435.388 479.128 436.022 480.466 437.235 481.078C438.337 481.629 439.689 481.43 440.809 480.906C441.277 480.713 441.686 480.402 441.999 480.003C442.36 479.373 442.522 478.648 442.462 477.924C442.462 476.133 442.355 474.28 441.536 472.688C440.832 471.299 439.605 470.104 439.587 468.567L435.369 469.382C435.143 469.403 434.928 469.488 434.749 469.627C434.615 469.768 434.522 469.942 434.48 470.132C434.03 471.865 433.922 473.668 434.161 475.443Z" fill="#444444" fill-opacity="0.59"/>
<path d="M383.796 431.456C383.62 432.946 383.694 434.544 384.472 435.831C385.25 437.118 386.888 437.97 388.305 437.456C388.378 437.438 388.446 437.405 388.505 437.36C388.565 437.314 388.615 437.257 388.652 437.192C388.69 437.036 388.669 436.871 388.592 436.729C387.967 435.06 388.018 433.212 388.736 431.581C388.828 431.368 389.027 431.118 389.245 431.201C389.336 431.247 389.409 431.322 389.453 431.414C389.677 431.802 389.79 432.244 389.777 432.692C389.712 433.097 389.699 433.51 389.74 433.919C389.828 434.317 390.254 434.692 390.624 434.521C390.732 434.455 390.824 434.368 390.897 434.265C390.969 434.163 391.02 434.046 391.046 433.923C392.078 430.937 391.611 427.673 391.138 424.547C391.142 424.476 391.13 424.404 391.104 424.337C391.077 424.27 391.036 424.21 390.983 424.161C390.931 424.112 390.868 424.076 390.8 424.053C390.731 424.031 390.659 424.024 390.587 424.033C388.402 423.816 387.208 423.292 385.958 425.325C384.884 427.038 383.796 429.395 383.796 431.456Z" fill="#444444" fill-opacity="0.59"/>
<path d="M409.342 423.857C408.693 426.552 408.041 429.279 407.999 432.048C408.01 433.773 408.14 435.495 408.388 437.202L408.874 441.211C409.041 442.563 409.203 443.911 409.439 445.249C409.589 445.938 409.672 446.641 409.684 447.346C409.639 448.042 409.529 448.732 409.355 449.407C409.064 450.825 408.902 452.266 408.869 453.713C408.818 456.028 409.105 458.343 409.286 460.658C409.647 465.272 409.592 469.908 409.124 474.512C408.937 475.755 409.207 477.023 409.883 478.082C410.158 478.416 410.384 478.787 410.555 479.184C410.902 480.244 410.092 481.305 409.883 482.393C409.75 483.241 409.959 484.108 410.464 484.802C410.969 485.497 411.73 485.962 412.578 486.097C416.281 486.537 420.087 486.338 423.425 488.032C423.777 487.004 423.008 485.837 423.36 484.791C423.582 484.143 424.193 483.721 424.61 483.175C425.17 482.343 425.449 481.353 425.406 480.351C425.423 479.042 425.19 477.743 424.721 476.521C424.328 475.503 423.763 474.498 423.795 473.405C423.795 472.868 423.985 472.303 423.767 471.808C423.618 471.523 423.415 471.27 423.17 471.062C421.787 469.546 420.936 467.62 420.749 465.576C420.568 463.547 420.634 461.504 420.943 459.492C421.17 457.575 421.476 455.551 422.693 454.056C422.129 449.521 422.461 444.919 423.67 440.512C423.791 440.105 423.98 439.633 424.397 439.535C424.563 439.518 424.73 439.541 424.884 439.603C425.039 439.664 425.177 439.762 425.286 439.887C426.013 440.568 426.36 441.554 426.675 442.499C427.022 443.522 427.374 444.615 427.11 445.661C426.999 446.124 426.777 446.532 426.647 446.976C426.365 447.869 426.415 448.834 426.786 449.694C426.967 450.008 427.08 450.357 427.119 450.717C427.076 451.027 426.983 451.327 426.842 451.606C426.67 452.154 426.615 452.732 426.681 453.302C426.748 453.873 426.933 454.423 427.226 454.917C427.816 455.9 428.544 456.794 429.388 457.57C428.985 459.347 429.089 461.202 429.689 462.923C429.732 463 429.76 463.085 429.77 463.174C429.78 463.262 429.773 463.351 429.749 463.436C429.666 463.612 429.453 463.677 429.286 463.802C428.823 464.182 429.11 464.9 429.42 465.395C430.27 466.755 431.209 468.057 432.23 469.294C433.156 470.4 433.073 472.535 434.453 472.933C435.032 473.058 435.632 473.058 436.212 472.933C437.573 472.725 439.091 472.331 439.758 471.127C440.031 470.632 440.142 470.03 440.568 469.66C440.994 469.289 441.545 469.224 441.781 468.78C442.017 468.335 441.753 467.752 441.832 467.238C441.911 466.724 442.36 466.312 442.503 465.77C442.846 464.52 441.388 463.492 441.189 462.214C440.902 460.362 443.235 458.973 443.138 457.121C442.934 453.097 442.804 449.055 442.596 445.031C442.335 441.427 442.298 437.81 442.485 434.201C442.647 431.956 442.948 429.603 442.124 427.515C440.939 424.57 437.67 422.917 434.508 422.603C431.346 422.288 428.193 423.038 425.059 423.529C419.857 424.33 414.572 424.441 409.342 423.857Z" fill="#565D6D"/>
<path d="M418.74 379.602C422.836 379.602 426.156 376.281 426.156 372.184C426.156 368.087 422.836 364.766 418.74 364.766C414.644 364.766 411.323 368.087 411.323 372.184C411.323 376.281 414.644 379.602 418.74 379.602Z" fill="#FBBEBE"/>
<path d="M415.721 380.986C415.469 381.573 415.045 382.07 414.506 382.411C413.966 382.752 413.336 382.922 412.698 382.898C412.429 384.01 413.073 385.13 413.809 386.005C415.338 387.784 417.313 389.123 419.531 389.884C421.75 390.645 424.131 390.801 426.429 390.335C427.324 390.174 428.172 389.82 428.915 389.297C429.917 388.461 430.59 387.296 430.814 386.01C431.027 384.733 431.087 383.435 430.994 382.144C431.02 381.889 430.947 381.633 430.79 381.431C430.605 381.287 430.376 381.212 430.142 381.218C428.577 381.079 426.943 381.019 425.568 380.25C424.193 379.481 423.216 377.745 423.878 376.319C423.772 376.541 421.068 376.648 420.712 376.694C419.596 376.851 418.48 377.027 417.369 377.231C416.835 377.26 416.308 377.36 415.8 377.527C415.128 377.875 415.378 377.703 415.536 378.333C415.772 379.296 416.119 379.986 415.721 380.986Z" fill="#FBBEBE"/>
<path d="M421.364 385.496C420.365 385.507 419.369 385.397 418.397 385.167C417.415 384.938 416.55 384.361 415.962 383.542C415.619 383.023 415.397 382.371 414.851 382.079C413.957 381.616 412.938 382.398 412.226 383.116C411.576 383.824 410.824 384.429 409.994 384.913C409.003 385.436 407.846 385.621 406.911 386.237C406.18 386.789 405.553 387.466 405.059 388.237L398.499 397.173C395.865 400.766 393.573 404.623 391.226 408.416C389.193 411.698 388.128 415.477 386.596 419.019C386.475 419.236 386.424 419.485 386.453 419.732C386.508 419.973 386.8 420.167 387.003 420.028C386.314 420.713 386.92 421.88 386.758 422.843C386.574 423.517 386.19 424.119 385.656 424.57C386.675 424.437 387.71 424.486 388.712 424.714C389.747 425.007 390.725 425.477 391.601 426.103C392.161 426.015 392.11 425.02 392.527 424.649C392.777 424.431 393.147 424.459 393.476 424.394C394.712 424.154 395.202 422.667 396.152 421.829C396.943 421.13 398.064 420.903 398.902 420.246C400.263 419.176 400.554 417.273 401.267 415.694C401.874 414.356 402.827 413.189 403.36 411.819C403.707 410.93 403.874 409.967 404.369 409.147C405.161 407.823 406.651 407.119 408.073 406.485C408.971 406.082 409.925 405.665 410.892 405.73C410.841 407.883 410.568 410.004 411.036 412.106C411.198 412.847 411.425 413.569 411.619 414.305C412.503 417.62 412.712 421.075 412.753 424.492C414.88 424.005 417.053 423.744 419.235 423.714C420.952 423.663 422.665 423.885 424.383 423.853C426.42 423.816 428.434 423.422 430.471 423.283C432.508 423.144 434.637 423.283 436.438 424.209C436.292 421.275 436.374 418.333 436.684 415.412L437.174 410.809C437.285 409.472 437.491 408.145 437.79 406.837C438.059 405.781 438.448 404.762 438.744 403.711C439.786 400.007 439.596 396.053 439.397 392.196C439.295 390.214 438.531 388.265 437.633 386.501C437.308 385.845 436.936 385.214 436.522 384.612C435.436 383.116 433.99 381.92 432.317 381.134C430.645 380.349 428.801 380 426.957 380.12C426.721 380.128 426.489 380.178 426.272 380.268C425.881 380.519 425.576 380.882 425.397 381.31C424.439 383.032 423.049 384.475 421.364 385.496Z" fill="#565D6D"/>
<path d="M412.217 374.643C412.425 374.18 412.985 374.008 413.328 373.638C413.985 372.934 413.689 371.809 413.791 370.86C413.957 369.471 415.11 368.309 416.429 367.813C417.775 367.381 419.207 367.291 420.596 367.549C421.265 367.598 421.911 367.813 422.476 368.174C422.716 368.35 422.939 368.577 423.166 368.739C423.579 368.989 424.074 369.068 424.544 368.958C425.015 368.848 425.424 368.558 425.684 368.151C424.045 366.179 422.23 364.095 419.74 363.489C418.885 363.314 418.014 363.232 417.142 363.243C415.99 363.22 414.8 363.201 413.735 363.641C412.286 364.239 411.267 365.614 410.744 367.096C410.287 368.597 410.042 370.156 410.017 371.726C409.923 372.773 409.923 373.827 410.017 374.874C410.196 376.305 410.728 377.668 411.564 378.842C411.677 379.025 411.837 379.173 412.027 379.273C414.138 380.199 412.045 375.027 412.217 374.643Z" fill="#565D6D"/>
<path d="M425.443 367.008C425.188 364.827 423.633 363.026 421.98 361.576C420.648 360.32 419.061 359.364 417.327 358.775C415.582 358.261 413.573 358.372 412.077 359.414C410.874 360.252 410.11 361.586 409.522 362.928C408.749 364.513 408.367 366.259 408.406 368.022C408.522 369.772 409.374 371.545 410.892 372.43C411.438 371.624 412.388 371.207 413.3 370.878C417.275 369.37 421.328 368.078 425.443 367.008Z" fill="#FED253"/>
<path opacity="0.1" d="M411.402 366.1C411.55 366.1 411.647 366.253 411.721 366.378C412.098 366.965 412.422 367.585 412.689 368.23C412.147 368.346 411.217 368.475 410.948 367.998C410.805 367.758 410.976 366.077 411.402 366.1Z" fill="black"/>
<path opacity="0.1" d="M421.952 365.054C421.841 365.16 421.711 364.942 421.711 364.785V362.988C421.708 362.939 421.72 362.889 421.744 362.845C421.763 362.823 421.786 362.805 421.813 362.792C421.839 362.78 421.867 362.772 421.897 362.771C422.272 362.729 422.582 363.049 422.823 363.354C423.188 363.85 423.506 364.378 423.772 364.933L421.813 364.873" fill="black"/>
<path d="M446.392 394.803C446.818 394.398 447.273 394.025 447.753 393.687C449.035 392.83 450.586 392.492 452.026 391.946C453.466 391.4 454.929 390.515 455.489 389.08C455.769 388.182 455.861 387.236 455.758 386.302C455.771 385.91 455.702 385.521 455.554 385.158C455.378 384.838 455.127 384.564 454.822 384.362C452.869 382.917 450.248 382.801 447.822 382.949C442.474 383.281 437.232 384.59 432.355 386.811C432.097 386.896 431.871 387.058 431.707 387.274C431.612 387.475 431.569 387.696 431.582 387.918C431.495 389.283 431.673 390.652 432.105 391.951C432.744 393.599 434.059 394.928 434.61 396.609C434.859 397.363 434.943 398.164 435.16 398.924C435.339 399.708 435.803 400.398 436.461 400.859C438.29 401.952 440.017 400.484 441.285 399.345L446.392 394.803Z" fill="#565D6D"/>
<path d="M422.444 401.216L420.096 396.095C419.752 395.385 419.455 394.653 419.207 393.904C418.939 393.011 418.809 392.085 418.559 391.187C417.735 388.195 415.657 385.704 414.643 382.773C414.579 382.509 414.448 382.265 414.263 382.065C414.115 381.96 413.946 381.889 413.767 381.857C413.589 381.825 413.406 381.833 413.231 381.88C411.814 382.125 410.708 383.204 409.411 383.815C408.809 384.093 408.161 384.278 407.559 384.598C407.259 384.74 406.992 384.946 406.778 385.201C406.564 385.456 406.407 385.754 406.319 386.075C406.175 386.783 406.527 387.464 406.823 388.154C408.083 390.997 408.37 394.173 408.425 397.285C408.467 399.377 408.36 401.623 407.124 403.304C404.749 406.545 406.268 411.305 407.157 415.227C407.263 415.69 407.388 416.19 407.462 416.681C407.54 417.295 407.576 417.914 407.569 418.533C407.569 420.612 407.453 422.755 406.583 424.64C407.442 425.097 408.389 425.365 409.36 425.427C412.049 425.77 414.748 426.01 417.457 426.149C418.306 426.229 419.163 426.185 419.999 426.02C420.993 425.751 421.868 425.159 422.488 424.338C423.107 423.516 423.435 422.511 423.42 421.482C423.569 422.765 423.842 424.158 424.772 425.047C425.703 425.936 427.059 426.071 428.323 426.14C431.89 426.329 435.467 426.229 439.018 425.839C439.244 425.829 439.467 425.777 439.675 425.686C440.36 425.344 440.397 424.399 440.342 423.64C440.24 422.218 440.133 420.797 439.962 419.385C439.817 418.484 439.742 417.574 439.74 416.662C439.81 415.724 439.965 414.794 440.203 413.884C440.823 410.995 441.314 408.045 441.105 405.086C441.023 404.366 440.994 403.64 441.017 402.915C441.138 401.28 441.999 399.725 441.837 398.099C441.374 393.321 440.999 388.418 439.666 383.806C439.425 382.982 439.119 382.097 438.402 381.625C437.476 381.005 436.175 381.329 435.115 380.935C434.617 380.704 434.144 380.423 433.703 380.097C432.743 379.497 431.644 379.159 430.513 379.116C429.661 379.083 428.712 379.273 428.198 379.958C427.96 380.344 427.803 380.774 427.735 381.222C427.064 384.047 426.277 386.839 425.49 389.631L424.735 392.307L422.712 399.493C422.513 400.257 422.647 400.493 422.444 401.216Z" fill="#444444" fill-opacity="0.59"/>
<path d="M434.281 373.18L479.063 420.246V424.237H459.096L425.443 380.31" fill="#F1C0C0"/>
<path opacity="0.1" d="M434.281 373.18L479.063 420.246V424.237H459.096L425.443 380.31" fill="black"/>
<path opacity="0.1" d="M426.156 379.69L426.3 379.741L459.383 420.246H479.063V424.237H459.096L425.443 380.31L426.156 379.69Z" fill="black"/>
<path d="M431.309 380.681C429.689 381.389 427.888 382.297 427.402 384C427.306 384.299 427.285 384.618 427.342 384.926C427.46 385.29 427.686 385.609 427.989 385.841C428.293 386.073 428.659 386.208 429.041 386.228C429.803 386.246 430.561 386.107 431.268 385.82L440.828 382.662C441.087 382.579 441.383 382.454 441.448 382.199C441.465 382.039 441.432 381.878 441.355 381.736C441.059 381.014 440.767 379.537 440.147 379.032C439.638 378.625 438.629 378.768 438.013 378.778C435.643 378.796 433.416 379.755 431.309 380.681Z" fill="#444444" fill-opacity="0.59"/>
<path d="M439.832 383.037C441.442 383.033 443.044 383.281 444.577 383.774C446.117 384.274 447.482 385.206 448.508 386.459C448.806 386.809 449.019 387.225 449.128 387.672C449.221 388.135 450.73 388.413 450.396 388.728C451.41 388.566 451.17 389.043 452.197 389.033C453.225 389.024 454.336 388.76 454.952 387.941C455.38 387.268 455.57 386.471 455.494 385.677C455.507 385.127 455.403 384.581 455.188 384.075C454.725 383.102 453.66 382.579 452.679 382.13L444.41 378.347C443.931 378.092 443.416 377.909 442.883 377.805C442.434 377.763 441.982 377.774 441.535 377.838L437.79 378.268C438.609 378.798 439.276 379.533 439.725 380.399C440.174 381.265 440.389 382.234 440.35 383.209" fill="#565D6D"/>
<path d="M388.334 587.034H396.665C396.554 589.446 395.903 591.573 394.713 593.414C393.523 595.255 391.873 596.691 389.762 597.722C387.667 598.738 385.192 599.246 382.335 599.246C380.018 599.246 377.947 598.857 376.122 598.079C374.313 597.302 372.774 596.183 371.505 594.723C370.251 593.263 369.291 591.494 368.624 589.415C367.974 587.336 367.648 584.995 367.648 582.393V580.512C367.648 577.91 367.99 575.569 368.672 573.49C369.37 571.395 370.354 569.618 371.624 568.158C372.909 566.682 374.448 565.555 376.242 564.778C378.035 564 380.026 563.611 382.216 563.611C385.231 563.611 387.778 564.151 389.857 565.23C391.936 566.309 393.547 567.793 394.689 569.681C395.832 571.554 396.506 573.688 396.713 576.085H388.381C388.35 574.783 388.127 573.696 387.715 572.823C387.302 571.935 386.652 571.268 385.763 570.824C384.874 570.38 383.692 570.157 382.216 570.157C381.185 570.157 380.288 570.348 379.526 570.729C378.765 571.11 378.13 571.713 377.622 572.538C377.114 573.363 376.733 574.434 376.48 575.751C376.242 577.053 376.122 578.624 376.122 580.464V582.393C376.122 584.233 376.234 585.804 376.456 587.106C376.678 588.407 377.035 589.47 377.527 590.295C378.019 591.121 378.654 591.732 379.431 592.128C380.225 592.509 381.193 592.7 382.335 592.7C383.605 592.7 384.676 592.501 385.549 592.104C386.422 591.692 387.096 591.073 387.572 590.248C388.048 589.407 388.302 588.336 388.334 587.034ZM430.43 580.75V582.155C430.43 584.805 430.057 587.185 429.311 589.296C428.581 591.39 427.542 593.184 426.193 594.675C424.844 596.151 423.249 597.286 421.409 598.079C419.568 598.857 417.536 599.246 415.315 599.246C413.077 599.246 411.03 598.857 409.173 598.079C407.333 597.286 405.73 596.151 404.365 594.675C403.016 593.184 401.969 591.39 401.223 589.296C400.493 587.185 400.128 584.805 400.128 582.155V580.75C400.128 578.1 400.493 575.72 401.223 573.609C401.969 571.498 403.008 569.705 404.341 568.229C405.69 566.738 407.285 565.603 409.126 564.825C410.983 564.032 413.03 563.635 415.267 563.635C417.489 563.635 419.52 564.032 421.361 564.825C423.218 565.603 424.82 566.738 426.169 568.229C427.518 569.705 428.566 571.498 429.311 573.609C430.057 575.72 430.43 578.1 430.43 580.75ZM421.956 582.155V580.703C421.956 578.989 421.805 577.481 421.504 576.18C421.218 574.863 420.79 573.76 420.218 572.871C419.647 571.982 418.941 571.316 418.1 570.872C417.275 570.411 416.33 570.181 415.267 570.181C414.156 570.181 413.188 570.411 412.363 570.872C411.538 571.316 410.848 571.982 410.292 572.871C409.737 573.76 409.316 574.863 409.031 576.18C408.761 577.481 408.626 578.989 408.626 580.703V582.155C408.626 583.853 408.761 585.36 409.031 586.677C409.316 587.979 409.737 589.081 410.292 589.986C410.864 590.891 411.562 591.573 412.387 592.033C413.228 592.493 414.204 592.723 415.315 592.723C416.378 592.723 417.322 592.493 418.147 592.033C418.973 591.573 419.663 590.891 420.218 589.986C420.79 589.081 421.218 587.979 421.504 586.677C421.805 585.36 421.956 583.853 421.956 582.155ZM439.392 564.111H446.2L453.936 588.224L461.672 564.111H468.48L456.697 598.77H451.175L439.392 564.111ZM435.25 564.111H442.296L443.605 590.676V598.77H435.25V564.111ZM465.576 564.111H472.646V598.77H464.267V590.676L465.576 564.111ZM487.368 564.111V598.77H479.036V564.111H487.368ZM522.68 564.111V598.77H514.349L502.09 577.203V598.77H493.735V564.111H502.09L514.349 585.677V564.111H522.68ZM556.802 580.25V594.485C556.215 595.135 555.31 595.834 554.089 596.58C552.882 597.31 551.359 597.936 549.518 598.46C547.677 598.984 545.511 599.246 543.02 599.246C540.719 599.246 538.632 598.881 536.759 598.151C534.887 597.405 533.276 596.318 531.927 594.89C530.594 593.445 529.563 591.684 528.833 589.605C528.119 587.51 527.762 585.114 527.762 582.416V580.488C527.762 577.791 528.127 575.394 528.857 573.3C529.587 571.205 530.61 569.443 531.927 568.015C533.26 566.571 534.823 565.476 536.617 564.73C538.426 563.984 540.409 563.611 542.568 563.611C545.757 563.611 548.352 564.119 550.351 565.135C552.351 566.135 553.866 567.523 554.898 569.301C555.929 571.062 556.556 573.101 556.778 575.418H548.757C548.598 574.276 548.296 573.307 547.852 572.514C547.424 571.705 546.805 571.094 545.995 570.681C545.186 570.253 544.139 570.038 542.853 570.038C541.853 570.038 540.941 570.253 540.116 570.681C539.306 571.11 538.616 571.76 538.045 572.633C537.474 573.49 537.029 574.569 536.712 575.87C536.41 577.172 536.26 578.695 536.26 580.441V582.416C536.26 584.146 536.402 585.662 536.688 586.963C536.99 588.264 537.434 589.351 538.021 590.224C538.624 591.081 539.386 591.732 540.306 592.176C541.242 592.604 542.345 592.819 543.615 592.819C544.504 592.819 545.265 592.747 545.9 592.604C546.535 592.446 547.059 592.255 547.471 592.033C547.9 591.795 548.225 591.573 548.447 591.367V585.987H542.639V580.25H556.802ZM592.65 589.557C592.65 589.018 592.57 588.534 592.412 588.105C592.253 587.661 591.959 587.249 591.531 586.868C591.102 586.487 590.483 586.106 589.674 585.725C588.881 585.328 587.833 584.916 586.532 584.487C585.009 583.979 583.541 583.408 582.128 582.773C580.716 582.123 579.454 581.369 578.344 580.512C577.233 579.639 576.352 578.624 575.701 577.465C575.051 576.291 574.725 574.926 574.725 573.371C574.725 571.879 575.059 570.538 575.725 569.348C576.392 568.142 577.32 567.119 578.51 566.277C579.716 565.421 581.129 564.77 582.747 564.326C584.366 563.865 586.135 563.635 588.055 563.635C590.595 563.635 592.832 564.08 594.768 564.968C596.72 565.841 598.243 567.087 599.338 568.705C600.449 570.308 601.005 572.205 601.005 574.395H592.697C592.697 573.522 592.515 572.752 592.15 572.086C591.801 571.419 591.269 570.895 590.555 570.515C589.841 570.134 588.944 569.943 587.865 569.943C586.818 569.943 585.937 570.102 585.223 570.419C584.509 570.737 583.969 571.165 583.604 571.705C583.239 572.228 583.057 572.808 583.057 573.442C583.057 573.966 583.2 574.442 583.485 574.871C583.787 575.283 584.207 575.672 584.747 576.037C585.302 576.402 585.969 576.751 586.746 577.084C587.54 577.418 588.428 577.743 589.412 578.06C591.253 578.647 592.888 579.306 594.316 580.036C595.76 580.75 596.974 581.567 597.958 582.488C598.958 583.392 599.711 584.424 600.219 585.582C600.743 586.741 601.005 588.05 601.005 589.51C601.005 591.065 600.703 592.446 600.1 593.652C599.497 594.858 598.632 595.881 597.506 596.722C596.379 597.548 595.03 598.174 593.459 598.603C591.888 599.031 590.134 599.246 588.198 599.246C586.421 599.246 584.667 599.023 582.938 598.579C581.224 598.119 579.669 597.421 578.272 596.484C576.876 595.532 575.757 594.318 574.916 592.842C574.091 591.351 573.678 589.581 573.678 587.534H582.057C582.057 588.55 582.192 589.407 582.462 590.105C582.731 590.803 583.128 591.367 583.652 591.795C584.175 592.208 584.818 592.509 585.58 592.7C586.342 592.874 587.214 592.961 588.198 592.961C589.262 592.961 590.118 592.811 590.769 592.509C591.42 592.192 591.896 591.779 592.197 591.271C592.499 590.748 592.65 590.176 592.65 589.557ZM635.127 580.75V582.155C635.127 584.805 634.754 587.185 634.008 589.296C633.278 591.39 632.239 593.184 630.89 594.675C629.541 596.151 627.946 597.286 626.105 598.079C624.264 598.857 622.233 599.246 620.011 599.246C617.774 599.246 615.727 598.857 613.87 598.079C612.029 597.286 610.427 596.151 609.062 594.675C607.713 593.184 606.666 591.39 605.92 589.296C605.19 587.185 604.825 584.805 604.825 582.155V580.75C604.825 578.1 605.19 575.72 605.92 573.609C606.666 571.498 607.705 569.705 609.038 568.229C610.387 566.738 611.982 565.603 613.823 564.825C615.679 564.032 617.726 563.635 619.964 563.635C622.186 563.635 624.217 564.032 626.058 564.825C627.914 565.603 629.517 566.738 630.866 568.229C632.215 569.705 633.262 571.498 634.008 573.609C634.754 575.72 635.127 578.1 635.127 580.75ZM626.653 582.155V580.703C626.653 578.989 626.502 577.481 626.2 576.18C625.915 574.863 625.486 573.76 624.915 572.871C624.344 571.982 623.638 571.316 622.797 570.872C621.971 570.411 621.027 570.181 619.964 570.181C618.853 570.181 617.885 570.411 617.06 570.872C616.235 571.316 615.544 571.982 614.989 572.871C614.433 573.76 614.013 574.863 613.727 576.18C613.458 577.481 613.323 578.989 613.323 580.703V582.155C613.323 583.853 613.458 585.36 613.727 586.677C614.013 587.979 614.433 589.081 614.989 589.986C615.56 590.891 616.258 591.573 617.084 592.033C617.925 592.493 618.901 592.723 620.011 592.723C621.075 592.723 622.019 592.493 622.844 592.033C623.669 591.573 624.36 590.891 624.915 589.986C625.486 589.081 625.915 587.979 626.2 586.677C626.502 585.36 626.653 583.853 626.653 582.155ZM669.273 580.75V582.155C669.273 584.805 668.9 587.185 668.154 589.296C667.424 591.39 666.385 593.184 665.036 594.675C663.687 596.151 662.092 597.286 660.251 598.079C658.41 598.857 656.379 599.246 654.157 599.246C651.92 599.246 649.873 598.857 648.016 598.079C646.175 597.286 644.573 596.151 643.208 594.675C641.859 593.184 640.812 591.39 640.066 589.296C639.336 587.185 638.971 584.805 638.971 582.155V580.75C638.971 578.1 639.336 575.72 640.066 573.609C640.812 571.498 641.851 569.705 643.184 568.229C644.533 566.738 646.128 565.603 647.969 564.825C649.825 564.032 651.872 563.635 654.11 563.635C656.332 563.635 658.363 564.032 660.204 564.825C662.06 565.603 663.663 566.738 665.012 568.229C666.361 569.705 667.408 571.498 668.154 573.609C668.9 575.72 669.273 578.1 669.273 580.75ZM660.799 582.155V580.703C660.799 578.989 660.648 577.481 660.346 576.18C660.061 574.863 659.632 573.76 659.061 572.871C658.49 571.982 657.784 571.316 656.943 570.872C656.117 570.411 655.173 570.181 654.11 570.181C652.999 570.181 652.031 570.411 651.206 570.872C650.381 571.316 649.69 571.982 649.135 572.871C648.579 573.76 648.159 574.863 647.873 576.18C647.604 577.481 647.469 578.989 647.469 580.703V582.155C647.469 583.853 647.604 585.36 647.873 586.677C648.159 587.979 648.579 589.081 649.135 589.986C649.706 590.891 650.404 591.573 651.23 592.033C652.071 592.493 653.047 592.723 654.157 592.723C655.221 592.723 656.165 592.493 656.99 592.033C657.815 591.573 658.506 590.891 659.061 589.986C659.632 589.081 660.061 587.979 660.346 586.677C660.648 585.36 660.799 583.853 660.799 582.155ZM703.038 564.111V598.77H694.707L682.448 577.203V598.77H674.093V564.111H682.448L694.707 585.677V564.111H703.038ZM730.054 564.111L729.031 587.796H722.508L721.485 564.111H730.054ZM721.271 595.175C721.271 594.033 721.683 593.08 722.508 592.319C723.334 591.541 724.405 591.152 725.722 591.152C727.039 591.152 728.102 591.541 728.912 592.319C729.737 593.08 730.149 594.033 730.149 595.175C730.149 596.318 729.737 597.278 728.912 598.055C728.102 598.817 727.039 599.198 725.722 599.198C724.405 599.198 723.334 598.817 722.508 598.055C721.683 597.278 721.271 596.318 721.271 595.175Z" fill="#2F2E41"/>
</svg>
