<svg width="24" height="24" viewBox="0 0 24 24" fill="none" xmlns="http://www.w3.org/2000/svg">
<g id="Label">
<path id="Vector" d="M7.71429 9.42857C8.66106 9.42857 9.42857 8.66106 9.42857 7.71429C9.42857 6.76751 8.66106 6 7.71429 6C6.76751 6 6 6.76751 6 7.71429C6 8.66106 6.76751 9.42857 7.71429 9.42857Z" stroke="#565D6D" stroke-width="2.05714" stroke-miterlimit="10" stroke-linecap="square"/>
<path id="Vector_2" d="M12.8569 10.2857L16.2855 13.7143" stroke="#565D6D" stroke-width="2.05714" stroke-miterlimit="10" stroke-linecap="square"/>
<path id="Vector_3" d="M10.2856 12.8571L13.7142 16.2857" stroke="#565D6D" stroke-width="2.05714" stroke-miterlimit="10" stroke-linecap="square"/>
<path id="Vector_4" d="M10.2856 18.8571L12.3547 20.9263C13.0241 21.5957 14.1093 21.5957 14.7787 20.9263L20.9261 14.7788C21.5956 14.1094 21.5956 13.0243 20.9261 12.3548L11.1427 2.57141L2.57129 2.57141L2.57129 11.1428L7.71415 16.2857" stroke="#565D6D" stroke-width="2.05714" stroke-miterlimit="10"/>
<path id="Vector_5" d="M7.71436 9.42859L7.71436 20.5714" stroke="#565D6D" stroke-width="2.05714" stroke-miterlimit="10" stroke-linecap="square"/>
</g>
</svg>
