<svg width="24" height="25" viewBox="0 0 24 25" fill="none" xmlns="http://www.w3.org/2000/svg">
<g id="mdi:password-reset">
<path id="Vector" d="M12.63 2.03845C18.16 2.03845 22.64 6.53845 22.64 12.0385C22.64 17.5385 18.16 22.0385 12.63 22.0385C9.12 22.0385 6.05 20.2185 4.26 17.4685L5.84 16.2185C7.25 18.5085 9.76 20.0385 12.64 20.0385C14.7617 20.0385 16.7966 19.1956 18.2969 17.6953C19.7971 16.195 20.64 14.1602 20.64 12.0385C20.64 9.91672 19.7971 7.88189 18.2969 6.3816C16.7966 4.88131 14.7617 4.03845 12.64 4.03845C8.56 4.03845 5.2 7.09845 4.71 11.0385H7.47L3.73 14.7685L0 11.0385H2.69C3.19 5.98845 7.45 2.03845 12.63 2.03845ZM15.59 10.2785C16.09 10.2885 16.5 10.6885 16.5 11.1985V15.8085C16.5 16.3085 16.09 16.7285 15.58 16.7285H10.05C9.54 16.7285 9.13 16.3085 9.13 15.8085V11.1985C9.13 10.6885 9.54 10.2885 10.04 10.2785V9.26845C10.04 7.73845 11.29 6.49845 12.81 6.49845C14.34 6.49845 15.59 7.73845 15.59 9.26845V10.2785ZM12.81 7.89845C12.06 7.89845 11.44 8.50845 11.44 9.26845V10.2785H14.19V9.26845C14.19 8.50845 13.57 7.89845 12.81 7.89845Z" fill="#444444"/>
</g>
</svg>
