<svg width="60" height="60" viewBox="0 0 60 60" fill="none" xmlns="http://www.w3.org/2000/svg">
<path d="M1.46616 55.1227L27.4655 1.87606C28.2201 0.330705 30.4151 0.31008 31.1985 1.84102L58.4458 55.0876C59.1564 56.4762 58.1479 58.1251 56.588 58.1251H3.34139C1.79874 58.1251 0.789284 56.509 1.46616 55.1227Z" fill="#FFB636"/>
<path d="M33.3206 20.2733L31.893 39.4333C31.7863 40.8668 30.5375 41.9424 29.104 41.8355C27.8013 41.7385 26.7947 40.6979 26.7017 39.4333L25.274 20.2733C25.1085 18.0513 26.7756 16.1158 28.9976 15.9503C31.2195 15.7848 33.1551 17.4518 33.3206 19.6738C33.3351 19.8686 33.3334 20.084 33.3206 20.2733ZM29.2973 45.9225C27.2545 45.9225 25.5984 47.5785 25.5984 49.6214C25.5984 51.6642 27.2545 53.3202 29.2973 53.3202C31.3401 53.3202 32.9962 51.6642 32.9962 49.6213C32.9962 47.5785 31.3401 45.9225 29.2973 45.9225Z" fill="#2B3B47"/>
</svg>
