<svg width="16" height="16" viewBox="0 0 16 16" fill="none" xmlns="http://www.w3.org/2000/svg">
<g id="Mode edit">
<path id="Vector" opacity="0.3" d="M3.33325 12.0533V12.6666H3.94659L9.98659 6.62664L9.37325 6.01331L3.33325 12.0533Z" fill="#9095A1"/>
<path id="Vector_2" d="M2 11.5L2 14L4.5 14L11.8733 6.62671L9.37333 4.12671L2 11.5ZM3.94667 12.6667L3.33333 12.6667L3.33333 12.0534L9.37333 6.01338L9.98667 6.62671L3.94667 12.6667ZM13.8067 3.75338L12.2467 2.19338C12.185 2.13157 12.1117 2.08254 12.0311 2.04909C11.9504 2.01563 11.864 1.99841 11.7767 1.99841C11.6894 1.99841 11.6029 2.01563 11.5223 2.04909C11.4416 2.08254 11.3683 2.13157 11.3067 2.19338L10.0867 3.41338L12.5867 5.91338L13.8067 4.69338C13.8685 4.6317 13.9175 4.55844 13.951 4.47779C13.9844 4.39714 14.0016 4.31069 14.0016 4.22338C14.0016 4.13606 13.9844 4.04961 13.951 3.96896C13.9175 3.88831 13.8685 3.81505 13.8067 3.75338Z" fill="#9095A1"/>
</g>
</svg>
