<svg width="16" height="16" viewBox="0 0 16 16" fill="none" xmlns="http://www.w3.org/2000/svg">
<g id="Delete">
<path id="Vector" opacity="0.3" d="M5.33325 6L10.6666 6L10.6666 12.6667L5.33325 12.6667L5.33325 6Z" fill="#9095A1"/>
<path id="Vector_2" d="M10.3333 2.66667L9.66659 2L6.33325 2L5.66659 2.66667L3.33325 2.66667L3.33325 4L12.6666 4L12.6666 2.66667L10.3333 2.66667ZM3.99992 12.6667C3.99992 13.4 4.59992 14 5.33325 14L10.6666 14C11.3999 14 11.9999 13.4 11.9999 12.6667L11.9999 4.66667L3.99992 4.66667L3.99992 12.6667ZM5.33325 6L10.6666 6L10.6666 12.6667L5.33325 12.6667L5.33325 6Z" fill="#9095A1"/>
</g>
</svg>
