<svg width="21" height="20" viewBox="0 0 21 20" fill="none" xmlns="http://www.w3.org/2000/svg">
<path id="Vector" fill-rule="evenodd" clip-rule="evenodd" d="M10.75 20C5.22688 20 0.75 15.5231 0.75 10C0.75 4.47688 5.22688 0 10.75 0C16.2731 0 20.75 4.47688 20.75 10C20.75 15.5231 16.2731 20 10.75 20ZM14.8125 11.9712C14.8125 10.3944 13.8275 9.50375 11.5231 8.94875V6.17375C12.2356 6.32 12.9175 6.62687 13.5844 7.10875L14.4337 5.73625C13.5971 5.12346 12.6145 4.74074 11.5837 4.62625V3.75H10.265V4.59688C8.37 4.74312 7.08187 5.82375 7.08187 7.40062C7.08187 9.05062 8.1125 9.85375 10.3256 10.4087V13.2712C9.34 13.125 8.52187 12.6869 7.6575 12.015L6.6875 13.3438C7.7258 14.1431 8.96293 14.6432 10.265 14.79V16.25H11.5837V14.8044C13.5087 14.6438 14.8125 13.5775 14.8125 11.9712ZM10.325 8.64187C9.15812 8.30625 8.87062 7.91188 8.87062 7.29813C8.87062 6.65625 9.37063 6.145 10.3256 6.07188L10.325 8.64187ZM13.0238 12.0731C13.0238 12.7744 12.4781 13.2562 11.5231 13.3294V10.6862C12.7056 11.0225 13.0238 11.4163 13.0238 12.0738V12.0731Z" fill="#444444"/>
</svg>
