<svg width="17" height="16" viewBox="0 0 17 16" fill="none" xmlns="http://www.w3.org/2000/svg">
<path id="Vector" d="M7.50238 16C7.21979 16 6.98274 15.904 6.79124 15.712C6.59975 15.52 6.50433 15.2827 6.505 15V9L0.720183 1.6C0.470838 1.26667 0.43327 0.916667 0.607479 0.55C0.781689 0.183333 1.08522 0 1.51809 0H15.4814C15.9136 0 16.2172 0.183333 16.392 0.55C16.5669 0.916667 16.5293 1.26667 16.2793 1.6L10.4945 9V15C10.4945 15.2833 10.3988 15.521 10.2073 15.713C10.0158 15.905 9.77907 16.0007 9.49714 16H7.50238ZM8.49976 8.3L13.4368 2H3.56272L8.49976 8.3Z" fill="black"/>
</svg>
