<svg width="16" height="16" viewBox="0 0 16 16" fill="none" xmlns="http://www.w3.org/2000/svg">
<g id="Apps 3">
<path id="Vector" d="M4.4 6.8C5.72548 6.8 6.8 5.72548 6.8 4.4C6.8 3.07452 5.72548 2 4.4 2C3.07452 2 2 3.07452 2 4.4C2 5.72548 3.07452 6.8 4.4 6.8Z" stroke="white" stroke-width="0.8" stroke-linecap="round" stroke-linejoin="round"/>
<path id="Vector_2" d="M11.6002 6.8C12.9257 6.8 14.0002 5.72548 14.0002 4.4C14.0002 3.07452 12.9257 2 11.6002 2C10.2747 2 9.2002 3.07452 9.2002 4.4C9.2002 5.72548 10.2747 6.8 11.6002 6.8Z" stroke="white" stroke-width="0.8" stroke-linecap="round" stroke-linejoin="round"/>
<path id="Vector_3" d="M4.4 14C5.72548 14 6.8 12.9254 6.8 11.6C6.8 10.2745 5.72548 9.19995 4.4 9.19995C3.07452 9.19995 2 10.2745 2 11.6C2 12.9254 3.07452 14 4.4 14Z" stroke="white" stroke-width="0.8" stroke-linecap="round" stroke-linejoin="round"/>
<path id="Vector_4" d="M11.6002 14C12.9257 14 14.0002 12.9254 14.0002 11.6C14.0002 10.2745 12.9257 9.19995 11.6002 9.19995C10.2747 9.19995 9.2002 10.2745 9.2002 11.6C9.2002 12.9254 10.2747 14 11.6002 14Z" stroke="white" stroke-width="0.8" stroke-linecap="round" stroke-linejoin="round"/>
</g>
</svg>
