<svg width="16" height="16" viewBox="0 0 16 16" fill="none" xmlns="http://www.w3.org/2000/svg">
<g id="Label 1">
<path id="Vector" d="M7.1999 12.4L8.0483 13.2484C8.15974 13.3599 8.29203 13.4483 8.43764 13.5086C8.58324 13.5689 8.7393 13.6 8.8969 13.6C9.05451 13.6 9.21057 13.5689 9.35617 13.5086C9.50177 13.4483 9.63407 13.3599 9.7455 13.2484L13.2483 9.74562C13.3598 9.63419 13.4482 9.5019 13.5085 9.35629C13.5688 9.21069 13.5998 9.05463 13.5998 8.89702C13.5998 8.73942 13.5688 8.58336 13.5085 8.43776C13.4482 8.29215 13.3598 8.15986 13.2483 8.04842L7.5999 2.40002L2.3999 2.40002L2.3999 7.60002L5.5999 10.8" stroke="white" stroke-width="0.96" stroke-miterlimit="10"/>
<path id="Vector_2" d="M5.5999 6.80002C6.26264 6.80002 6.7999 6.26277 6.7999 5.60002C6.7999 4.93728 6.26264 4.40002 5.5999 4.40002C4.93716 4.40002 4.3999 4.93728 4.3999 5.60002C4.3999 6.26277 4.93716 6.80002 5.5999 6.80002Z" stroke="white" stroke-width="0.96" stroke-miterlimit="10" stroke-linecap="square"/>
<path id="Vector_3" d="M5.6001 6.80005L5.6001 13.6" stroke="white" stroke-width="0.96" stroke-miterlimit="10" stroke-linecap="square"/>
</g>
</svg>
