<svg width="10" height="7" viewBox="0 0 10 7" fill="none" xmlns="http://www.w3.org/2000/svg">
<path id="Vector" d="M9.74339 0.407977C9.58067 0.204684 9.36054 0.0905762 9.13109 0.0905762C8.90164 0.0905762 8.68151 0.204684 8.51878 0.407977L5.4008 4.2719L2.32624 0.407977C2.16352 0.204684 1.94339 0.0905762 1.71394 0.0905762C1.48449 0.0905762 1.26436 0.204684 1.10163 0.407977C1.02023 0.509447 0.955615 0.630168 0.911521 0.763178C0.867428 0.896188 0.844727 1.03885 0.844727 1.18295C0.844727 1.32704 0.867428 1.4697 0.911521 1.60271C0.955615 1.73572 1.02023 1.85644 1.10163 1.95791L4.78415 6.58589C4.86489 6.6882 4.96095 6.7694 5.06679 6.82481C5.17263 6.88023 5.28615 6.90876 5.4008 6.90876C5.51546 6.90876 5.62898 6.88023 5.73481 6.82481C5.84065 6.7694 5.93671 6.6882 6.01745 6.58589L9.74339 1.95791C9.8248 1.85644 9.88941 1.73572 9.93351 1.60271C9.9776 1.4697 10.0003 1.32704 10.0003 1.18295C10.0003 1.03885 9.9776 0.896188 9.93351 0.763178C9.88941 0.630168 9.8248 0.509447 9.74339 0.407977Z" fill="black" fill-opacity="0.5"/>
</svg>
