<svg width="21" height="21" viewBox="0 0 21 21" fill="none" xmlns="http://www.w3.org/2000/svg">
<g id="trash-2 2">
<path id="Vector" d="M2.83398 5.5H4.50065H17.834" stroke="#A30D11" stroke-width="1.66667" stroke-linecap="round" stroke-linejoin="round"/>
<path id="Vector_2" d="M7.00098 5.49996V3.83329C7.00098 3.39126 7.17657 2.96734 7.48913 2.65478C7.80169 2.34222 8.22561 2.16663 8.66764 2.16663H12.001C12.443 2.16663 12.8669 2.34222 13.1795 2.65478C13.492 2.96734 13.6676 3.39126 13.6676 3.83329V5.49996M16.1676 5.49996V17.1666C16.1676 17.6086 15.992 18.0326 15.6795 18.3451C15.3669 18.6577 14.943 18.8333 14.501 18.8333H6.16764C5.72561 18.8333 5.30169 18.6577 4.98913 18.3451C4.67657 18.0326 4.50098 17.6086 4.50098 17.1666V5.49996H16.1676Z" stroke="#A30D11" stroke-width="1.66667" stroke-linecap="round" stroke-linejoin="round"/>
<path id="Vector_3" d="M8.66699 9.66663V14.6666" stroke="#A30D11" stroke-width="1.66667" stroke-linecap="round" stroke-linejoin="round"/>
<path id="Vector_4" d="M12.001 9.66663V14.6666" stroke="#A30D11" stroke-width="1.66667" stroke-linecap="round" stroke-linejoin="round"/>
</g>
</svg>
