<svg width="14" height="14" viewBox="0 0 14 14" fill="none" xmlns="http://www.w3.org/2000/svg">
<path d="M6.99961 0.600098C3.47961 0.600098 0.599609 3.4801 0.599609 7.0001C0.599609 10.5201 3.47961 13.4001 6.99961 13.4001C10.5196 13.4001 13.3996 10.5201 13.3996 7.0001C13.3996 3.4801 10.5196 0.600098 6.99961 0.600098ZM9.96521 5.9657L6.76521 9.1657C6.60921 9.3217 6.40441 9.4001 6.19961 9.4001C5.99481 9.4001 5.79001 9.3217 5.63401 9.1657L4.03401 7.5657C3.72121 7.2529 3.72121 6.7473 4.03401 6.4345C4.34681 6.1217 4.85241 6.1217 5.16521 6.4345L6.19961 7.4689L8.83401 4.8345C9.14681 4.5217 9.65241 4.5217 9.96521 4.8345C10.278 5.1473 10.278 5.6529 9.96521 5.9657Z" fill="#15D254"/>
</svg>
