<svg width="32" height="32" viewBox="0 0 32 32" fill="none" xmlns="http://www.w3.org/2000/svg">
<g id="B meeting">
<path id="Vector" d="M28 4L14.4 4L14.4 15.2L18.4 12L28 12V4Z" stroke="#565D6D" stroke-width="1.92" stroke-miterlimit="10" stroke-linecap="square"/>
<path id="Vector_2" d="M23.2 20C24.5255 20 25.6 18.9255 25.6 17.6C25.6 16.2745 24.5255 15.2 23.2 15.2C21.8746 15.2 20.8 16.2745 20.8 17.6C20.8 18.9255 21.8746 20 23.2 20Z" stroke="#565D6D" stroke-width="1.92" stroke-miterlimit="10" stroke-linecap="square"/>
<path id="Vector_3" d="M8.80002 20C10.1255 20 11.2 18.9255 11.2 17.6C11.2 16.2745 10.1255 15.2 8.80002 15.2C7.47454 15.2 6.40002 16.2745 6.40002 17.6C6.40002 18.9255 7.47454 20 8.80002 20Z" stroke="#565D6D" stroke-width="1.92" stroke-miterlimit="10" stroke-linecap="square"/>
<path id="Vector_4" d="M13.6 27.2L13.6 24.8136C13.6 24.2456 13.3024 23.7232 12.8136 23.4336C12.0352 22.9736 10.6864 22.4 8.8 22.4C6.8896 22.4 5.5488 22.9704 4.7792 23.4304C4.2944 23.72 4 24.2408 4 24.8056L4 27.2L13.6 27.2Z" stroke="#565D6D" stroke-width="1.92" stroke-miterlimit="10" stroke-linecap="square"/>
<path id="Vector_5" d="M28 27.2V24.8136C28 24.2456 27.7024 23.7232 27.2136 23.4336C26.4352 22.9736 25.0864 22.4 23.2 22.4C21.2896 22.4 19.9488 22.9704 19.1792 23.4304C18.6944 23.72 18.4 24.2408 18.4 24.8056V27.2L28 27.2Z" stroke="#565D6D" stroke-width="1.92" stroke-miterlimit="10" stroke-linecap="square"/>
</g>
</svg>
