<svg width="32" height="33" viewBox="0 0 32 33" fill="none" xmlns="http://www.w3.org/2000/svg">
<g id="Coupon">
<path id="Vector" d="M24.8 16.2C24.8 14.44 26.24 13 28 13V8.20001L4 8.20001L4 13C5.76 13 7.2 14.44 7.2 16.2C7.2 17.96 5.76 19.4 4 19.4L4 24.2L28 24.2V19.4C26.24 19.4 24.8 17.96 24.8 16.2Z" stroke="#565D6D" stroke-width="1.92" stroke-miterlimit="10" stroke-linecap="square"/>
<path id="Vector_2" d="M12 20.2L20 12.2" stroke="#565D6D" stroke-width="1.92" stroke-miterlimit="10" stroke-linecap="square"/>
<path id="Vector_3" d="M12.8 14.6C13.6836 14.6 14.4 13.8837 14.4 13C14.4 12.1164 13.6836 11.4 12.8 11.4C11.9163 11.4 11.2 12.1164 11.2 13C11.2 13.8837 11.9163 14.6 12.8 14.6Z" stroke="#565D6D" stroke-width="1.92" stroke-miterlimit="10" stroke-linecap="square"/>
<path id="Vector_4" d="M19.2 21C20.0836 21 20.8 20.2836 20.8 19.4C20.8 18.5163 20.0836 17.8 19.2 17.8C18.3163 17.8 17.6 18.5163 17.6 19.4C17.6 20.2836 18.3163 21 19.2 21Z" stroke="#565D6D" stroke-width="1.92" stroke-miterlimit="10" stroke-linecap="square"/>
</g>
</svg>
