<svg width="32" height="33" viewBox="0 0 32 33" fill="none" xmlns="http://www.w3.org/2000/svg">
<g id="Meeting">
<path id="Vector" d="M23.1998 23.0002C24.5253 23.0002 25.5998 21.9257 25.5998 20.6002C25.5998 19.2747 24.5253 18.2002 23.1998 18.2002C21.8743 18.2002 20.7998 19.2747 20.7998 20.6002C20.7998 21.9257 21.8743 23.0002 23.1998 23.0002Z" stroke="#565D6D" stroke-width="1.92" stroke-miterlimit="10" stroke-linecap="square"/>
<path id="Vector_2" d="M8.7999 23.0002C10.1254 23.0002 11.1999 21.9257 11.1999 20.6002C11.1999 19.2747 10.1254 18.2002 8.7999 18.2002C7.47442 18.2002 6.3999 19.2747 6.3999 20.6002C6.3999 21.9257 7.47442 23.0002 8.7999 23.0002Z" stroke="#565D6D" stroke-width="1.92" stroke-miterlimit="10" stroke-linecap="square"/>
<path id="Vector_3" d="M20.8002 15V14.2136C20.8002 13.6456 20.5026 13.1232 20.0138 12.8336C19.2354 12.3736 17.8866 11.8 16.0002 11.8C14.0898 11.8 12.749 12.3704 11.9794 12.8304C11.4946 13.12 11.2002 13.6408 11.2002 14.2056V15L20.8002 15Z" stroke="#565D6D" stroke-width="1.92" stroke-miterlimit="10" stroke-linecap="square"/>
<path id="Vector_4" d="M13.6 28.6001V27.8137C13.6 27.2457 13.3024 26.7233 12.8136 26.4337C12.0352 25.9737 10.6864 25.4001 8.8 25.4001C6.8896 25.4001 5.5488 25.9705 4.7792 26.4305C4.2944 26.7201 4 27.2409 4 27.8057L4 28.6001L13.6 28.6001Z" stroke="#565D6D" stroke-width="1.92" stroke-miterlimit="10" stroke-linecap="square"/>
<path id="Vector_5" d="M27.9999 28.6001V27.8137C27.9999 27.2457 27.7023 26.7233 27.2135 26.4337C26.4351 25.9737 25.0863 25.4001 23.1999 25.4001C21.2895 25.4001 19.9487 25.9705 19.1791 26.4305C18.6943 26.7201 18.3999 27.2409 18.3999 27.8057V28.6001L27.9999 28.6001Z" stroke="#565D6D" stroke-width="1.92" stroke-miterlimit="10" stroke-linecap="square"/>
<path id="Vector_6" d="M16.0001 9.4001C17.3256 9.4001 18.4001 8.32558 18.4001 7.0001C18.4001 5.67461 17.3256 4.6001 16.0001 4.6001C14.6746 4.6001 13.6001 5.67461 13.6001 7.0001C13.6001 8.32558 14.6746 9.4001 16.0001 9.4001Z" stroke="#565D6D" stroke-width="1.92" stroke-miterlimit="10" stroke-linecap="square"/>
</g>
</svg>
