<svg width="24" height="24" viewBox="0 0 24 24" fill="none" xmlns="http://www.w3.org/2000/svg">
<g id="Calendar date 1">
<path id="Vector" d="M7.71429 12H6V12.8571H7.71429V12Z" stroke="#444444" stroke-width="2.05714" stroke-miterlimit="10" stroke-linecap="square"/>
<path id="Vector_2" d="M12.8569 12H11.1426V12.8571H12.8569V12Z" stroke="#444444" stroke-width="2.05714" stroke-miterlimit="10" stroke-linecap="square"/>
<path id="Vector_3" d="M7.71429 16.2856H6V17.1428H7.71429V16.2856Z" stroke="#444444" stroke-width="2.05714" stroke-miterlimit="10" stroke-linecap="square"/>
<path id="Vector_4" d="M12.8569 16.2856H11.1426V17.1428H12.8569V16.2856Z" stroke="#444444" stroke-width="2.05714" stroke-miterlimit="10" stroke-linecap="square"/>
<path id="Vector_5" d="M17.9994 12H16.2852V12.8571H17.9994V12Z" stroke="#444444" stroke-width="2.05714" stroke-miterlimit="10" stroke-linecap="square"/>
<path id="Vector_6" d="M7.71429 12H6V12.8571H7.71429V12Z" fill="#444444"/>
<path id="Vector_7" d="M12.8569 12H11.1426V12.8571H12.8569V12Z" fill="#444444"/>
<path id="Vector_8" d="M7.71429 16.2856H6V17.1428H7.71429V16.2856Z" fill="#444444"/>
<path id="Vector_9" d="M12.8569 16.2856H11.1426V17.1428H12.8569V16.2856Z" fill="#444444"/>
<path id="Vector_10" d="M17.9994 12H16.2852V12.8571H17.9994V12Z" fill="#444444"/>
<path id="Vector_11" d="M21.4294 5.14307L2.57227 5.14307L2.57227 20.5716L21.4294 20.5716L21.4294 5.14307Z" stroke="#444444" stroke-width="2.05714" stroke-miterlimit="10" stroke-linecap="square"/>
<path id="Vector_12" d="M16.2852 5.14272V2.57129" stroke="#444444" stroke-width="2.05714" stroke-miterlimit="10" stroke-linecap="square"/>
<path id="Vector_13" d="M7.71484 5.14272L7.71484 2.57129" stroke="#444444" stroke-width="2.05714" stroke-miterlimit="10" stroke-linecap="square"/>
<path id="Vector_14" d="M2.57227 8.57129L21.4294 8.57129" stroke="#444444" stroke-width="2.05714" stroke-miterlimit="10"/>
</g>
</svg>
