<svg width="24" height="24" viewBox="0 0 24 24" fill="none" xmlns="http://www.w3.org/2000/svg">
<g id="Frame">
<path id="Vector" d="M6.85714 21.4286C7.33053 21.4286 7.71429 21.0449 7.71429 20.5715C7.71429 20.0981 7.33053 19.7144 6.85714 19.7144C6.38376 19.7144 6 20.0981 6 20.5715C6 21.0449 6.38376 21.4286 6.85714 21.4286Z" fill="#323743"/>
<path id="Vector_2" d="M18.8571 21.4286C19.3305 21.4286 19.7143 21.0449 19.7143 20.5715C19.7143 20.0981 19.3305 19.7144 18.8571 19.7144C18.3838 19.7144 18 20.0981 18 20.5715C18 21.0449 18.3838 21.4286 18.8571 21.4286Z" fill="#323743"/>
<path id="Vector_3" d="M6.85714 21.4286C7.33053 21.4286 7.71429 21.0449 7.71429 20.5715C7.71429 20.0981 7.33053 19.7144 6.85714 19.7144C6.38376 19.7144 6 20.0981 6 20.5715C6 21.0449 6.38376 21.4286 6.85714 21.4286Z" stroke="#323743" stroke-width="2.05714" stroke-miterlimit="10" stroke-linecap="square"/>
<path id="Vector_4" d="M18.8571 21.4286C19.3305 21.4286 19.7143 21.0449 19.7143 20.5715C19.7143 20.0981 19.3305 19.7144 18.8571 19.7144C18.3838 19.7144 18 20.0981 18 20.5715C18 21.0449 18.3838 21.4286 18.8571 21.4286Z" stroke="#323743" stroke-width="2.05714" stroke-miterlimit="10" stroke-linecap="square"/>
<path id="Vector_5" d="M5.82941 7.71418L20.5723 7.71418L19.134 14.9073C18.9737 15.7088 18.27 16.2856 17.4531 16.2856L8.35884 16.2856C7.49998 16.2856 6.77312 15.6496 6.65998 14.7976L5.14369 3.42847L2.57227 3.42847" stroke="#323743" stroke-width="2.05714" stroke-miterlimit="10" stroke-linecap="square"/>
</g>
</svg>
