<svg width="14" height="14" viewBox="0 0 14 14" fill="none" xmlns="http://www.w3.org/2000/svg">
<g id="carbon:close-filled" clip-path="url(#clip0_1562_2865)">
<path id="Vector" d="M7 0.875C3.5875 0.875 0.875 3.5875 0.875 7C0.875 10.4125 3.5875 13.125 7 13.125C10.4125 13.125 13.125 10.4125 13.125 7C13.125 3.5875 10.4125 0.875 7 0.875ZM9.3625 10.0625L7 7.7L4.6375 10.0625L3.9375 9.3625L6.3 7L3.9375 4.6375L4.6375 3.9375L7 6.3L9.3625 3.9375L10.0625 4.6375L7.7 7L10.0625 9.3625L9.3625 10.0625Z" fill="#FF6262"/>
<path id="Vector_2" d="M6.3 7L3.9375 4.6375L4.6375 3.9375L7 6.3L9.3625 3.9375L10.0625 4.6375L7.7 7L10.0625 9.3625L9.3625 10.0625L7 7.7L4.6375 10.0625L3.9375 9.3625L6.3 7Z" fill="white"/>
</g>
<defs>
<clipPath id="clip0_1562_2865">
<rect width="14" height="14" fill="white"/>
</clipPath>
</defs>
</svg>
