<svg width="320" height="295" viewBox="0 0 320 295" fill="none" xmlns="http://www.w3.org/2000/svg">
<g clip-path="url(#clip0_1491_2552)">
<path d="M27.4241 103.51C26.9279 103.831 26.4355 104.372 26.162 104.898C25.7321 105.728 25.4508 106.825 26.459 107.288C31.3592 109.526 35.8256 112.774 39.5574 116.662C41.4175 118.601 43.1994 120.714 44.4771 123.096C45.1063 124.272 45.5908 125.487 45.7628 126.792C45.8058 127.125 45.8331 127.462 45.837 127.799C45.837 127.854 45.8292 128.074 45.8292 128.074C45.8253 128.148 45.8214 128.223 45.8136 128.297C45.7862 128.579 45.7472 128.861 45.6925 129.139C45.6807 129.19 45.6182 129.425 45.6104 129.464C45.583 129.562 45.5518 129.66 45.5205 129.758C45.458 129.939 45.3994 130.162 45.3134 130.354C45.29 130.386 45.2665 130.425 45.2509 130.456C45.1688 130.605 45.0946 130.758 45.0126 130.903C44.9578 131.001 44.8992 131.099 44.8406 131.197C44.8093 131.244 44.7819 131.295 44.7507 131.342C44.6022 131.569 44.6296 131.534 44.8289 131.232C44.7898 131.467 44.4068 131.808 44.2622 131.988C44.1723 132.102 44.0747 132.208 43.9848 132.321C43.6917 132.67 44.0473 132.278 44.0708 132.231C43.9457 132.463 43.6409 132.674 43.4495 132.855C43.2346 133.058 43.0118 133.254 42.7851 133.443C42.7266 133.489 42.4413 133.709 42.5077 133.662C42.4257 133.724 42.3475 133.783 42.2615 133.842C41.7731 134.195 41.269 134.52 40.7493 134.826C40.6438 134.885 40.5383 134.944 40.4367 135.006C40.4015 135.026 40.3741 135.041 40.3507 135.057C40.3273 135.068 40.3038 135.081 40.2725 135.096C39.9755 135.241 39.6825 135.39 39.3816 135.527C38.2523 136.04 36.8963 136.507 35.8178 136.789C35.1379 136.966 34.4501 137.118 33.7624 137.247C33.5631 137.126 33.3677 137.005 33.1684 136.887C30.4057 135.249 27.5023 133.834 24.5168 132.654C21.6135 131.506 18.6163 130.593 15.5684 129.923C13.9741 129.574 12.368 129.293 10.7502 129.077C9.30048 128.885 7.77646 128.638 6.31111 128.755C4.4706 128.901 2.81767 129.99 1.915 131.604C1.04359 133.164 1.05922 134.841 2.26669 136.185C3.20452 137.232 4.55657 137.776 5.85001 138.232C7.44042 138.792 9.05034 139.313 10.6721 139.775C16.9126 141.554 23.5126 142.542 29.9915 141.766C30.5229 141.703 31.0505 141.621 31.578 141.535C32.4377 142.083 33.27 142.668 34.0633 143.295C35.0363 144.063 36.021 144.952 36.7674 145.904C37.1191 146.355 37.4356 146.841 37.7052 147.342C37.8459 147.601 37.9748 147.868 38.0881 148.142C38.1429 148.279 38.1975 148.412 38.2445 148.553C38.2445 148.546 38.3422 148.875 38.3461 148.867C38.4789 149.384 38.5532 149.941 38.5454 150.478C38.5415 150.517 38.5258 150.678 38.5219 150.725C38.5102 150.85 38.4945 150.971 38.475 151.097C38.4594 151.207 38.4242 151.32 38.4125 151.43C38.4007 151.477 38.3851 151.52 38.3734 151.567C38.3461 151.657 38.3148 151.747 38.2796 151.834C38.2796 151.841 38.2757 151.845 38.2718 151.849C38.2835 151.834 38.2952 151.826 38.307 151.81C38.2913 151.826 38.2757 151.853 38.2601 151.873C38.2289 151.947 38.1975 151.998 38.1702 152.022C38.1234 152.12 38.0764 152.221 38.0374 152.308C38.0608 152.285 38.0803 152.26 38.1077 152.233C38.0764 152.268 38.0452 152.308 38.0178 152.347C38.0178 152.351 38.0139 152.355 38.01 152.358C37.9787 152.417 37.9436 152.464 37.9123 152.496C37.9084 152.5 37.9045 152.507 37.9006 152.512C37.8342 152.598 37.7638 152.68 37.6974 152.762C37.5411 152.915 37.3848 153.068 37.2207 153.213C37.1699 153.256 36.7947 153.519 37.1191 153.303C37.4512 153.083 37.0487 153.35 37.0057 153.385C36.8064 153.531 36.6032 153.668 36.3922 153.801C36.3062 153.856 36.2242 153.907 36.1383 153.957C36.0796 153.993 35.8491 154.114 35.7748 154.158C34.8917 154.592 33.9812 154.953 33.0356 155.235C33.0434 155.235 32.8949 155.274 32.8011 155.302C32.7073 155.325 32.5549 155.368 32.5627 155.365C32.3009 155.431 32.043 155.489 31.7773 155.548C31.2302 155.666 30.6792 155.764 30.1243 155.847C28.8934 156.027 27.6508 156.097 26.4081 156.152C20.1129 156.422 13.7943 155.925 7.61238 154.706C6.09229 154.405 4.58002 154.06 3.07557 153.675C1.33276 153.229 -1.23848 157.3 0.770055 157.818C7.5225 159.546 14.4664 160.392 21.4337 160.392C26.7716 160.392 32.5745 160.098 37.1347 156.967C39.5418 155.313 41.4058 152.927 42.0388 150.039C42.6679 147.178 41.6597 144.446 39.8739 142.232C39.1823 141.374 38.4086 140.61 37.5762 139.909C40.8899 138.619 43.9184 136.675 46.2747 133.897C48.2754 131.538 49.5376 128.583 49.522 125.464C49.5063 122.376 47.9511 119.514 46.1574 117.1C42.578 112.289 38.0257 108.217 32.8363 105.223C31.5155 104.459 30.1517 103.781 28.7645 103.146C28.3932 102.977 27.7055 103.33 27.4281 103.51H27.4241ZM9.59357 134.579C8.37435 134.171 7.17076 133.846 6.1509 133.141C6.0493 133.07 5.95161 132.996 5.85392 132.925C6.01022 132.937 6.16262 132.953 6.31892 132.968C7.76475 133.105 9.21059 133.298 10.6408 133.544C13.509 134.038 16.3381 134.748 19.097 135.661C20.9101 136.26 22.6959 136.958 24.4387 137.734C22.3911 137.596 20.3474 137.318 18.3271 136.922C15.3652 136.346 12.45 135.539 9.58966 134.583L9.59357 134.579Z" fill="white"/>
<path d="M314.913 160.673C309.611 165.131 304.434 169.738 299.398 174.494C300.633 175.932 301.891 177.346 303.176 178.737C308.043 174.267 313.036 169.933 318.146 165.741C317.072 164.049 315.999 162.357 314.917 160.668L314.913 160.673Z" fill="#444444"/>
<path d="M275.958 255.235C274.601 255.138 273.281 255.415 272.046 255.689C270.773 255.97 269.551 256.38 268.425 256.947C266.521 257.901 264.84 259.28 263.727 261.124C261.861 260.241 259.89 259.78 258.049 259.694C255.106 259.561 252.437 260.452 250.254 261.918C248.008 263.426 246.167 265.411 244.595 267.635C243.094 269.764 241.821 272.097 240.95 274.68C238.544 273.722 236.06 273.484 233.85 273.883C228.132 274.911 223.978 279.233 221.831 284.43C221.274 285.782 220.804 287.247 220.49 288.778C221.372 289.427 222.25 290.088 223.116 290.76C223.131 290.678 223.144 290.596 223.159 290.517C223.226 290.189 223.3 289.865 223.382 289.541C223.422 289.381 223.469 289.22 223.508 289.06V289.04C223.543 288.942 223.57 288.845 223.601 288.747C223.797 288.122 224.018 287.509 224.264 286.915C224.511 286.32 224.785 285.742 225.083 285.184C225.232 284.906 225.389 284.629 225.55 284.359C225.632 284.226 225.714 284.09 225.796 283.957C225.714 284.082 225.78 283.98 225.796 283.957C225.859 283.863 225.922 283.769 225.984 283.679C226.694 282.651 227.501 281.706 228.402 280.858C228.818 280.467 229.253 280.099 229.707 279.756C229.77 279.709 229.832 279.662 229.896 279.615C230.009 279.537 230.123 279.459 230.236 279.384C230.487 279.22 230.742 279.064 231.005 278.912C231.977 278.357 233.027 277.911 234.151 277.622C234.293 277.587 234.43 277.552 234.571 277.521C234.571 277.521 234.614 277.513 234.649 277.505C234.696 277.497 234.79 277.477 234.806 277.477C235.116 277.423 235.425 277.38 235.742 277.352C236.334 277.298 236.942 277.286 237.556 277.321C237.835 277.337 238.117 277.364 238.399 277.399C238.528 277.415 238.658 277.438 238.788 277.458C238.771 277.458 239.081 277.517 239.14 277.533C239.457 277.603 239.779 277.693 240.096 277.79C239.677 279.826 239.485 281.964 239.638 284.195C239.748 285.828 240.026 287.513 240.492 289.173C241.029 291.08 241.895 293.1 243.885 294.003C245.363 294.671 246.938 294.331 247.989 293.624C248.976 292.96 249.729 292.018 250.156 290.838C251.054 288.365 250.822 285.106 249.337 282.234C248.028 279.705 246.053 277.642 243.741 276.145C243.944 275.621 244.164 275.106 244.399 274.602C244.669 274.027 244.96 273.464 245.265 272.918C245.402 272.671 245.543 272.429 245.688 272.191C245.767 272.061 245.845 271.933 245.924 271.804C245.971 271.729 246.013 271.659 246.061 271.585C246.069 271.573 246.119 271.491 246.147 271.452L246.194 271.382C246.241 271.312 246.288 271.241 246.335 271.17C246.417 271.045 246.503 270.925 246.59 270.803C246.758 270.561 246.935 270.323 247.111 270.084C247.475 269.596 247.856 269.119 248.251 268.658C249.015 267.767 249.835 266.931 250.736 266.185C251.583 265.481 252.444 264.907 253.569 264.375C254.102 264.125 254.65 263.91 255.223 263.735C255.87 263.535 256.136 263.473 256.771 263.39C257.97 263.234 259.24 263.258 260.525 263.473C260.572 263.485 260.788 263.524 260.827 263.532C260.987 263.566 261.144 263.605 261.305 263.644C261.623 263.727 261.94 263.821 262.253 263.926C262.355 263.961 262.457 263.997 262.559 264.036C262.042 266.372 262.328 269.068 263.923 271.577C264.867 273.062 266.266 274.215 267.838 274.41C269.26 274.586 270.385 273.66 270.843 272.476C271.411 271.006 271.204 269.131 270.35 267.415C269.499 265.708 268.246 264.27 266.764 263.051C266.733 263.023 266.697 263 266.666 262.973C266.835 262.769 267.007 262.578 267.191 262.391C267.579 261.996 267.998 261.64 268.445 261.311C268.504 261.269 268.566 261.23 268.625 261.191C268.723 261.124 268.821 261.061 268.919 261.003C269.17 260.847 269.425 260.702 269.688 260.565C270.691 260.034 271.776 259.627 272.909 259.33C273.559 259.159 273.779 259.115 274.421 259.018C274.986 258.932 275.558 258.862 276.141 258.834C276.373 258.823 276.612 258.826 276.851 258.846C276.957 258.854 277.062 258.865 277.168 258.878C277.227 258.885 277.431 258.92 277.459 258.92C277.6 258.951 277.74 258.995 277.878 259.034C277.717 258.072 277.564 257.111 277.431 256.154C277.388 255.919 277.348 255.685 277.306 255.45C276.847 255.345 276.393 255.274 275.95 255.243L275.958 255.235ZM246.343 281.948C246.456 282.108 246.574 282.261 246.68 282.421C246.853 282.671 247.001 282.929 247.162 283.183C247.186 283.222 247.209 283.265 247.229 283.304C247.307 283.461 247.381 283.617 247.448 283.776C247.499 283.894 247.55 284.015 247.597 284.136C247.593 284.124 247.62 284.199 247.648 284.265C247.734 284.547 247.816 284.828 247.879 285.109C247.91 285.25 247.934 285.395 247.965 285.535C247.965 285.578 247.973 285.605 247.969 285.602C248.004 285.883 248.024 286.161 248.028 286.438C248.028 286.54 248.028 286.637 248.028 286.739C248.016 286.793 248.024 286.883 248.016 286.938C247.993 287.224 247.949 287.501 247.895 287.77C247.875 287.872 247.844 287.974 247.824 288.079C247.812 288.118 247.8 288.154 247.789 288.193C247.702 288.443 247.601 288.685 247.483 288.915C247.428 289.021 247.369 289.126 247.31 289.228C247.303 289.24 247.303 289.243 247.295 289.256C247.287 289.263 247.284 289.271 247.271 289.287C247.119 289.486 246.962 289.682 246.786 289.857C246.703 289.939 246.617 290.017 246.527 290.092C246.492 290.123 246.449 290.15 246.413 290.181C246.19 290.303 245.982 290.439 245.744 290.541C245.638 290.584 245.532 290.623 245.422 290.659C245.359 290.678 245.293 290.698 245.226 290.713H245.198C244.904 290.756 244.603 290.764 244.293 290.729C244.258 290.721 244.113 290.69 244.07 290.678C243.983 290.651 243.901 290.619 243.815 290.588C243.812 290.588 243.787 290.576 243.76 290.564C243.714 290.537 243.635 290.49 243.616 290.478C243.572 290.451 243.533 290.42 243.49 290.389C243.478 290.373 243.467 290.361 243.447 290.338L243.439 290.326C243.439 290.326 243.447 290.338 243.451 290.345C243.451 290.338 243.443 290.334 243.439 290.326C243.341 290.213 243.369 290.217 243.423 290.299C243.4 290.264 243.38 290.228 243.356 290.193C243.333 290.119 243.126 289.752 243.157 289.709C243.157 289.709 243.266 290.061 243.204 289.838C243.184 289.767 243.161 289.697 243.137 289.627C243.078 289.431 243.02 289.232 242.969 289.037C242.773 288.329 242.616 287.622 242.495 286.915C242.495 286.895 242.487 286.871 242.482 286.852C242.482 286.84 242.482 286.832 242.479 286.817C242.459 286.649 242.432 286.481 242.412 286.313C242.369 285.953 242.334 285.594 242.311 285.238C242.263 284.57 242.247 283.914 242.263 283.261C242.263 283.183 242.275 282.964 242.275 282.944C242.283 282.824 242.291 282.698 242.299 282.577C242.322 282.253 242.353 281.933 242.389 281.616C242.467 280.956 242.573 280.303 242.703 279.666C242.749 279.443 242.8 279.22 242.855 278.997C243.333 279.279 243.8 279.584 244.25 279.924C244.47 280.088 244.685 280.26 244.893 280.44C244.924 280.471 245.097 280.623 245.136 280.662C245.277 280.795 245.414 280.928 245.548 281.069C245.783 281.311 246.01 281.561 246.226 281.819C246.265 281.866 246.304 281.913 246.343 281.96V281.948ZM267.622 267.529V267.537C267.818 267.818 268.002 268.091 268.182 268.381C268.21 268.443 268.246 268.506 268.273 268.568C268.288 268.603 268.336 268.709 268.375 268.795C268.367 268.795 268.465 269.08 268.484 269.158C268.496 269.205 268.504 269.252 268.515 269.299C268.515 269.307 268.515 269.311 268.515 269.319C268.515 269.35 268.527 269.428 268.535 269.502C268.532 269.514 268.527 269.537 268.52 269.564C268.508 269.616 268.504 269.674 268.496 269.729C268.484 269.799 268.461 269.87 268.453 269.94C268.453 269.959 268.449 269.971 268.449 269.979C268.406 270.069 268.344 270.162 268.319 270.21L268.312 270.221C268.292 270.252 268.269 270.291 268.257 270.304C268.182 270.389 268.108 270.479 268.025 270.553C267.983 270.593 267.92 270.627 267.896 270.639C267.908 270.635 267.932 270.624 267.971 270.604C267.854 270.655 267.748 270.73 267.622 270.772C267.583 270.788 267.54 270.8 267.496 270.811C267.379 270.788 267.246 270.827 267.124 270.819C267.011 270.811 266.791 270.741 267.014 270.815C266.87 270.764 266.725 270.722 266.576 270.671L266.544 270.659C266.513 270.639 266.485 270.624 266.454 270.604C266.376 270.553 266.302 270.495 266.227 270.44C266.204 270.421 266.098 270.331 266.031 270.264C265.988 270.218 265.949 270.17 265.902 270.123C265.894 270.115 265.89 270.112 265.882 270.104C265.804 269.987 265.718 269.878 265.643 269.756C265.624 269.729 265.608 269.698 265.588 269.666C265.545 269.549 265.443 269.397 265.4 269.295C265.342 269.166 265.291 269.033 265.239 268.901C265.224 268.834 265.18 268.729 265.169 268.682C265.126 268.529 265.087 268.377 265.056 268.225C265.048 268.197 265.032 268.108 265.016 268.033C265.008 267.939 264.981 267.721 264.977 267.666C264.969 267.537 264.965 267.412 264.965 267.287C264.965 267.287 264.961 267.295 264.958 267.295C264.958 267.295 264.961 267.279 264.965 267.256C264.965 267.243 264.965 267.236 264.965 267.224C264.965 267.123 264.965 267.111 264.973 267.134C264.973 267.126 264.973 267.115 264.973 267.111C265.004 266.794 265.051 266.482 265.114 266.177C265.138 266.056 265.165 265.934 265.196 265.817C265.208 265.762 265.224 265.708 265.239 265.653C265.267 265.575 265.294 265.5 265.322 265.422C265.467 265.52 265.611 265.622 265.753 265.728C265.894 265.833 266.035 265.942 266.172 266.052C266.215 266.087 266.337 266.188 266.376 266.22C266.639 266.454 266.893 266.7 267.137 266.958C267.258 267.087 267.375 267.22 267.493 267.353C267.54 267.407 267.583 267.462 267.63 267.513L267.622 267.529Z" fill="#444444"/>
<mask id="mask0_1491_2552" style="mask-type:luminance" maskUnits="userSpaceOnUse" x="83" y="0" width="33" height="34">
<path d="M115.419 0.0219727H83.2207V33.1577H115.419V0.0219727Z" fill="white"/>
</mask>
<g mask="url(#mask0_1491_2552)">
<path d="M115.415 15.7877L105.376 21.5955L104.474 33.1543L95.8477 25.4082L84.5729 28.1204L89.2802 17.5201L83.2168 7.63685L94.7472 8.83675L102.273 0.0185547L104.701 11.3573L115.415 15.7877Z" fill="#2D2D2D"/>
</g>
<mask id="mask1_1491_2552" style="mask-type:luminance" maskUnits="userSpaceOnUse" x="47" y="54" width="214" height="214">
<path d="M260.811 160.65C260.811 101.832 213.129 54.1499 154.311 54.1499C95.4922 54.1499 47.8105 101.832 47.8105 160.65C47.8105 219.468 95.4922 267.15 154.311 267.15C213.129 267.15 260.811 219.468 260.811 160.65Z" fill="white"/>
</mask>
<g mask="url(#mask1_1491_2552)">
<path d="M260.811 160.65C260.811 101.832 213.129 54.1499 154.311 54.1499C95.4922 54.1499 47.8105 101.832 47.8105 160.65C47.8105 219.468 95.4922 267.15 154.311 267.15C213.129 267.15 260.811 219.468 260.811 160.65Z" fill="white"/>
</g>
<mask id="mask2_1491_2552" style="mask-type:luminance" maskUnits="userSpaceOnUse" x="66" y="76" width="208" height="340">
<path d="M273.658 76.8682H66.3379V415.538H273.658V76.8682Z" fill="white"/>
</mask>
<g mask="url(#mask2_1491_2552)">
<path d="M196.541 165.257C196.318 161.823 197.722 157.79 198.631 158.186C199.551 158.583 198.69 161.794 199.328 162.762C200.17 164.029 200.896 165.219 200.267 168.218L196.531 165.257H196.541Z" fill="white"/>
</g>
<mask id="mask3_1491_2552" style="mask-type:luminance" maskUnits="userSpaceOnUse" x="66" y="77" width="208" height="339">
<path d="M273.607 77.0273H66.2871V415.697H273.607V77.0273Z" fill="white"/>
</mask>
<g mask="url(#mask3_1491_2552)">
<path d="M200.053 391.261C200.053 391.261 189.215 255.18 159.942 189.031L132.73 190.395C132.73 190.395 135.053 286.204 155.461 391.261C155.461 391.261 180.999 397.317 200.043 391.261H200.053Z" fill="#1E2128"/>
</g>
<mask id="mask4_1491_2552" style="mask-type:luminance" maskUnits="userSpaceOnUse" x="66" y="77" width="208" height="339">
<path d="M273.527 77.0312H66.207V415.701H273.527V77.0312Z" fill="white"/>
</mask>
<g mask="url(#mask4_1491_2552)">
<path d="M122.876 391.265C122.876 391.265 96.1002 395.589 80.8203 385.209C80.8203 385.209 88.9484 237.664 113.857 189.286H143.14C143.14 189.286 142.182 268.814 122.867 391.265H122.876Z" fill="#1E2128"/>
</g>
<mask id="mask5_1491_2552" style="mask-type:luminance" maskUnits="userSpaceOnUse" x="66" y="76" width="208" height="340">
<path d="M273.574 76.8047H66.2539V415.475H273.574V76.8047Z" fill="white"/>
</mask>
<g mask="url(#mask5_1491_2552)">
<path d="M114.562 119.011C115.278 116.438 116.643 113.149 116.643 113.149C116.169 115.616 116.159 118.344 116.208 119.814C122.565 122.726 135.842 126.528 156.473 121.488C156.212 119.369 156.096 117.357 156.096 117.357C156.464 118.702 156.986 120.056 157.499 121.227C158.235 121.043 158.97 120.85 159.725 120.637C159.106 118.015 158.844 113.468 158.844 113.468C159.56 116.206 160.992 118.992 161.592 120.105C162.85 119.727 164.128 119.321 165.434 118.876C165.434 118.876 161.322 112.607 158.631 96.2878C156.386 82.8702 149.506 76.5342 139.045 76.8047C117.533 77.3855 111.795 117.29 111.795 117.29C111.795 117.29 112.714 118.015 114.562 119.002V119.011Z" fill="#323743"/>
</g>
<mask id="mask6_1491_2552" style="mask-type:luminance" maskUnits="userSpaceOnUse" x="66" y="76" width="208" height="340">
<path d="M273.55 76.8496H66.2305V415.52H273.55V76.8496Z" fill="white"/>
</mask>
<g mask="url(#mask6_1491_2552)">
<path d="M188.905 166.39C188.905 166.39 180.283 127.598 146.007 125.586C93.2485 122.5 77.0293 156.803 77.0293 156.803L188.905 166.39Z" fill="#444444"/>
</g>
<mask id="mask7_1491_2552" style="mask-type:luminance" maskUnits="userSpaceOnUse" x="66" y="76" width="208" height="340">
<path d="M273.572 76.8018H66.252V415.472H273.572V76.8018Z" fill="white"/>
</mask>
<g mask="url(#mask7_1491_2552)">
<path d="M134.301 86.6495C140.127 83.3218 150.355 83.1769 152.687 91.0608C154.846 98.3354 154.497 120.257 144.762 119.841C134.582 119.405 131.379 111.676 130.469 106.946C130.14 105.243 128.476 89.9773 134.301 86.6495Z" fill="white"/>
</g>
<mask id="mask8_1491_2552" style="mask-type:luminance" maskUnits="userSpaceOnUse" x="66" y="76" width="208" height="340">
<path d="M273.55 76.8022H66.2305V415.472H273.55V76.8022Z" fill="white"/>
</mask>
<g mask="url(#mask8_1491_2552)">
<path d="M130.698 106.559C130.698 106.559 126.15 107.961 125.298 103.869C124.533 100.184 128.908 98.7424 130.321 100.358L130.698 106.559Z" fill="white"/>
</g>
<mask id="mask9_1491_2552" style="mask-type:luminance" maskUnits="userSpaceOnUse" x="66" y="76" width="208" height="340">
<path d="M273.65 76.9009H66.3301V415.571H273.65V76.9009Z" fill="white"/>
</mask>
<g mask="url(#mask9_1491_2552)">
<path d="M193.775 213.166C200.298 200.397 205.397 170.582 205.397 170.582C206.152 169.412 209.316 164.333 209.52 160.463C209.607 158.741 208.736 157.725 207.575 158.287C207.159 156.894 206.327 156.633 205.204 157.455C204.575 156.236 203.81 156.284 203.056 156.874C201.391 154.079 198.062 162.93 198.081 164.033C198.091 164.778 198.314 167.496 198.43 168.299C198.576 169.363 178.873 202.941 178.873 202.941L193.785 213.176L193.775 213.166Z" fill="white"/>
</g>
<mask id="mask10_1491_2552" style="mask-type:luminance" maskUnits="userSpaceOnUse" x="66" y="77" width="208" height="339">
<path d="M273.509 77.0234H66.1895V415.693H273.509V77.0234Z" fill="white"/>
</mask>
<g mask="url(#mask10_1491_2552)">
<path d="M86.1251 387.582L85.2539 387.523C85.3505 386.053 95.2699 239.427 120.439 191.793L121.214 192.2C96.1212 239.679 86.2216 386.111 86.1251 387.582Z" fill="#444444"/>
</g>
<mask id="mask11_1491_2552" style="mask-type:luminance" maskUnits="userSpaceOnUse" x="66" y="76" width="208" height="340">
<path d="M273.558 76.8877H66.2383V415.558H273.558V76.8877Z" fill="white"/>
</mask>
<g mask="url(#mask11_1491_2552)">
<path d="M107.521 165.509L98.2891 218.299C122.385 225.535 149.577 219.035 171.815 204.282L162.602 152.217L145.464 126.128C145.464 126.128 137.113 135.656 127.901 125.915L103.912 135.975L107.521 165.509Z" fill="#444444"/>
</g>
<mask id="mask12_1491_2552" style="mask-type:luminance" maskUnits="userSpaceOnUse" x="66" y="76" width="208" height="340">
<path d="M273.625 76.8682H66.3047V415.538H273.625V76.8682Z" fill="white"/>
</mask>
<g mask="url(#mask12_1491_2552)">
<path d="M195.308 176.934L190.441 164.87C190.441 164.87 178.267 140.125 168.242 133.73L161.826 177.031L195.298 176.934H195.308Z" fill="#444444"/>
</g>
<mask id="mask13_1491_2552" style="mask-type:luminance" maskUnits="userSpaceOnUse" x="66" y="76" width="208" height="340">
<path d="M273.568 76.9751H66.248V415.645H273.568V76.9751Z" fill="white"/>
</mask>
<g mask="url(#mask13_1491_2552)">
<path d="M138.352 272.589L137.5 272.511C138.885 257.73 140.035 243.268 140.926 229.531L141.787 229.589C140.897 243.326 139.746 257.798 138.362 272.589H138.352Z" fill="#323743"/>
</g>
<mask id="mask14_1491_2552" style="mask-type:luminance" maskUnits="userSpaceOnUse" x="66" y="77" width="208" height="339">
<path d="M273.582 77.0679H66.2617V415.738H273.582V77.0679Z" fill="white"/>
</mask>
<g mask="url(#mask14_1491_2552)">
<path d="M161.938 391.602C161.754 390.731 143.697 304.112 138.559 260.464L139.429 260.357C144.558 303.967 162.616 390.547 162.799 391.418L161.938 391.602Z" fill="#444444"/>
</g>
<mask id="mask15_1491_2552" style="mask-type:luminance" maskUnits="userSpaceOnUse" x="66" y="76" width="208" height="340">
<path d="M273.619 76.8931H66.2988V415.563H273.619V76.8931Z" fill="white"/>
</mask>
<g mask="url(#mask15_1491_2552)">
<path d="M163.087 152.153L162.248 152.302L171.44 204.364L172.279 204.216L163.087 152.153Z" fill="#1E2128"/>
</g>
<mask id="mask16_1491_2552" style="mask-type:luminance" maskUnits="userSpaceOnUse" x="66" y="76" width="208" height="340">
<path d="M273.568 76.7886H66.248V415.459H273.568V76.7886Z" fill="white"/>
</mask>
<g mask="url(#mask16_1491_2552)">
<path d="M127 99.5322C127 99.5322 128.626 98.5936 130.242 100.315C130.242 100.315 130.668 96.8719 131.829 94.7049L132.555 98.5453C133.736 98.7292 137.49 99.3483 141.603 99.4257C142.764 99.4449 146.025 99.4257 146.025 99.4257L146.771 93.0116L148.164 99.3001C149.122 99.2227 149.867 99.1254 150.632 99.0189L151.173 95.2467L152.228 98.7967C153.254 98.6227 153.97 98.4679 154.309 98.3906C154.522 95.6911 154.609 88.4264 149.8 84.2182C144.284 79.391 132.613 82.0414 129.903 87.8265C127.204 93.6115 127 99.5415 127 99.5415V99.5322Z" fill="#323743"/>
</g>
<mask id="mask17_1491_2552" style="mask-type:luminance" maskUnits="userSpaceOnUse" x="66" y="76" width="208" height="340">
<path d="M273.558 76.8223H66.2383V415.492H273.558V76.8223Z" fill="white"/>
</mask>
<g mask="url(#mask17_1491_2552)">
<path d="M137.897 130.289C142.726 130.289 145.6 126.071 145.6 126.071L144.39 112.103L131.094 104.209L127.736 125.858C127.736 125.858 131.897 130.289 137.887 130.289H137.897Z" fill="white"/>
</g>
<mask id="mask18_1491_2552" style="mask-type:luminance" maskUnits="userSpaceOnUse" x="66" y="76" width="208" height="340">
<path d="M273.568 76.8242H66.248V415.494H273.568V76.8242Z" fill="white"/>
</mask>
<g mask="url(#mask18_1491_2552)">
<path d="M144.312 120.647L144.351 119.796C138.303 119.534 134.432 114.91 132.245 111.079L131.51 111.495C133.803 115.51 137.877 120.366 144.312 120.637V120.647Z" fill="#323743"/>
</g>
<mask id="mask19_1491_2552" style="mask-type:luminance" maskUnits="userSpaceOnUse" x="66" y="76" width="208" height="340">
<path d="M273.625 76.9399H66.3047V415.61H273.625V76.9399Z" fill="white"/>
</mask>
<g mask="url(#mask19_1491_2552)">
<path d="M109.388 277.594L246.404 255.963C249.22 255.518 251.165 252.848 250.72 250.024L236.795 161.866C236.35 159.051 233.679 157.107 230.853 157.552L93.8463 179.182C91.0305 179.627 89.0851 182.297 89.5303 185.122L103.455 273.279C103.901 276.094 106.572 278.039 109.397 277.594H109.388Z" fill="#5E84C2"/>
</g>
<mask id="mask20_1491_2552" style="mask-type:luminance" maskUnits="userSpaceOnUse" x="66" y="76" width="208" height="340">
<path d="M273.537 76.9639H66.2168V415.634H273.537V76.9639Z" fill="white"/>
</mask>
<g mask="url(#mask20_1491_2552)">
<path d="M135.19 234.321L110.519 238.213C109.753 238.334 109.231 239.053 109.351 239.818L110.102 244.567C110.222 245.332 110.941 245.855 111.706 245.734L136.377 241.841C137.143 241.72 137.665 241.002 137.545 240.237L136.794 235.488C136.674 234.722 135.955 234.2 135.19 234.321Z" fill="#444444"/>
</g>
<mask id="mask21_1491_2552" style="mask-type:luminance" maskUnits="userSpaceOnUse" x="66" y="76" width="208" height="340">
<path d="M273.601 76.9614H66.2812V415.631H273.601V76.9614Z" fill="white"/>
</mask>
<g mask="url(#mask21_1491_2552)">
<path d="M167.856 229.174L143.185 233.067C142.419 233.188 141.897 233.906 142.017 234.671L142.768 239.42C142.889 240.185 143.607 240.708 144.372 240.587L169.043 236.694C169.809 236.573 170.331 235.855 170.211 235.09L169.46 230.341C169.34 229.575 168.621 229.053 167.856 229.174Z" fill="#444444"/>
</g>
<mask id="mask22_1491_2552" style="mask-type:luminance" maskUnits="userSpaceOnUse" x="66" y="76" width="208" height="340">
<path d="M273.652 76.959H66.332V415.629H273.652V76.959Z" fill="white"/>
</mask>
<g mask="url(#mask22_1491_2552)">
<path d="M200.515 224.026L175.845 227.919C175.079 228.039 174.556 228.758 174.678 229.523L175.427 234.272C175.548 235.037 176.267 235.56 177.032 235.439L201.703 231.546C202.468 231.425 202.991 230.707 202.87 229.941L202.121 225.193C201.999 224.428 201.281 223.905 200.515 224.026Z" fill="#444444"/>
</g>
<mask id="mask23_1491_2552" style="mask-type:luminance" maskUnits="userSpaceOnUse" x="66" y="76" width="208" height="340">
<path d="M273.697 76.9497H66.377V415.62H273.697V76.9497Z" fill="white"/>
</mask>
<g mask="url(#mask23_1491_2552)">
<path d="M233.162 218.872L208.491 222.765C207.726 222.886 207.203 223.604 207.324 224.369L208.074 229.118C208.195 229.884 208.913 230.406 209.679 230.285L234.35 226.392C235.115 226.271 235.638 225.553 235.517 224.788L234.767 220.039C234.646 219.273 233.927 218.752 233.162 218.872Z" fill="#444444"/>
</g>
<mask id="mask24_1491_2552" style="mask-type:luminance" maskUnits="userSpaceOnUse" x="66" y="76" width="208" height="340">
<path d="M273.695 76.9653H66.375V415.635H273.695V76.9653Z" fill="white"/>
</mask>
<g mask="url(#mask24_1491_2552)">
<path d="M235.183 233.642L202.731 238.763C201.796 238.91 201.159 239.787 201.306 240.721L201.96 244.858C202.107 245.793 202.984 246.43 203.918 246.283L236.37 241.162C237.304 241.015 237.942 240.138 237.795 239.204L237.142 235.067C236.994 234.132 236.117 233.495 235.183 233.642Z" fill="#444444"/>
</g>
<mask id="mask25_1491_2552" style="mask-type:luminance" maskUnits="userSpaceOnUse" x="66" y="76" width="208" height="340">
<path d="M273.543 76.915H66.2227V415.585H273.543V76.915Z" fill="white"/>
</mask>
<g mask="url(#mask25_1491_2552)">
<path d="M110.495 206.283L108.937 196.415C108.598 194.258 110.079 192.227 112.236 191.888L131.416 188.86C133.575 188.522 135.607 190.002 135.945 192.159L137.503 202.027C137.842 204.183 136.361 206.215 134.204 206.554L115.024 209.582C112.865 209.92 110.833 208.44 110.495 206.283ZM112.401 192.933C110.824 193.185 109.74 194.665 109.991 196.251L111.55 206.118C111.801 207.695 113.281 208.779 114.869 208.527L134.048 205.499C135.626 205.248 136.71 203.768 136.458 202.181L134.9 192.314C134.649 190.737 133.168 189.654 131.581 189.905L112.401 192.933Z" fill="#444444"/>
</g>
<mask id="mask26_1491_2552" style="mask-type:luminance" maskUnits="userSpaceOnUse" x="66" y="76" width="208" height="340">
<path d="M273.72 76.8955H66.4004V415.566H273.72V76.8955Z" fill="white"/>
</mask>
<g mask="url(#mask26_1491_2552)">
<path d="M238.398 168.249L237.441 168.4L240.776 189.517L241.732 189.366L238.398 168.249Z" fill="#505C68"/>
</g>
<mask id="mask27_1491_2552" style="mask-type:luminance" maskUnits="userSpaceOnUse" x="66" y="76" width="208" height="340">
<path d="M273.679 76.9658H66.3594V415.636H273.679V76.9658Z" fill="white"/>
</mask>
<g mask="url(#mask27_1491_2552)">
<path d="M168.859 268.73L168.703 267.772L246.391 255.515C247.629 255.321 248.713 254.654 249.458 253.629C250.203 252.613 250.503 251.365 250.31 250.127L243.555 207.388L244.513 207.233L251.268 249.972C251.5 251.462 251.142 252.961 250.252 254.189C249.361 255.418 248.045 256.221 246.555 256.463L168.868 268.72L168.859 268.73Z" fill="#505C68"/>
</g>
<mask id="mask28_1491_2552" style="mask-type:luminance" maskUnits="userSpaceOnUse" x="66" y="76" width="208" height="340">
<path d="M273.681 76.8711H66.3613V415.541H273.681V76.8711Z" fill="white"/>
</mask>
<g mask="url(#mask28_1491_2552)">
<path d="M208.488 158.17C209.088 158.353 209.388 159.021 209.126 159.592C208.643 160.617 207.859 161.681 207.297 161.72C206.32 161.788 206.814 160.104 207.191 158.856C207.356 158.305 207.936 157.996 208.488 158.17Z" fill="white"/>
</g>
<mask id="mask29_1491_2552" style="mask-type:luminance" maskUnits="userSpaceOnUse" x="66" y="76" width="208" height="340">
<path d="M273.672 76.8701H66.3516V415.54H273.672V76.8701Z" fill="white"/>
</mask>
<g mask="url(#mask29_1491_2552)">
<path d="M206.794 158.15C207.201 158.42 207.365 158.933 207.191 159.388C206.756 160.53 205.836 162.164 204.907 162.019C204.317 161.923 204.704 160.152 205.091 158.701C205.274 158.004 206.194 157.734 206.794 158.15Z" fill="white"/>
</g>
<mask id="mask30_1491_2552" style="mask-type:luminance" maskUnits="userSpaceOnUse" x="66" y="76" width="208" height="340">
<path d="M273.664 76.8701H66.3438V415.54H273.664V76.8701Z" fill="white"/>
</mask>
<g mask="url(#mask30_1491_2552)">
<path d="M204.347 157.55C204.909 157.666 205.267 158.208 205.16 158.769C204.919 159.968 204.309 161.555 203.061 162.009C201.987 162.396 202.596 159.852 202.983 158.295C203.118 157.744 203.661 157.405 204.212 157.521L204.357 157.55H204.347Z" fill="white"/>
</g>
<mask id="mask31_1491_2552" style="mask-type:luminance" maskUnits="userSpaceOnUse" x="66" y="76" width="208" height="340">
<path d="M273.666 76.8657H66.3457V415.536H273.666V76.8657Z" fill="white"/>
</mask>
<g mask="url(#mask31_1491_2552)">
<path d="M202.357 156.2C203.373 156.374 203.517 157.39 203.256 158.058C202.773 159.277 201.941 160.67 201.176 160.854C200.353 161.057 200.808 159.006 201.079 157.449C201.195 156.742 201.737 156.085 202.366 156.2H202.357Z" fill="white"/>
</g>
<mask id="mask32_1491_2552" style="mask-type:luminance" maskUnits="userSpaceOnUse" x="66" y="76" width="208" height="340">
<path d="M273.5 76.8901H66.1797V415.56H273.5V76.8901Z" fill="white"/>
</mask>
<g mask="url(#mask32_1491_2552)">
<path d="M97.8132 211.482C97.8132 211.482 81.7786 188.013 106.6 171.278L120.816 131.315V131.044C104.171 130.957 86.2786 141.144 76.592 155.413C60.3925 179.268 62.0181 207.806 89.1427 222.51L97.8132 211.472V211.482Z" fill="#444444"/>
</g>
<mask id="mask33_1491_2552" style="mask-type:luminance" maskUnits="userSpaceOnUse" x="66" y="76" width="208" height="340">
<path d="M273.515 76.8838H66.1953V415.554H273.515V76.8838Z" fill="white"/>
</mask>
<g mask="url(#mask33_1491_2552)">
<path d="M105.969 176.282L105.107 176.108L107.526 163.812L108.388 163.986L105.969 176.282Z" fill="#1E2128"/>
</g>
<mask id="mask34_1491_2552" style="mask-type:luminance" maskUnits="userSpaceOnUse" x="66" y="76" width="208" height="340">
<path d="M273.476 76.8984H66.1562V415.568H273.476V76.8984Z" fill="white"/>
</mask>
<g mask="url(#mask34_1491_2552)">
<path d="M95.0411 222.915C83.3516 216.578 75.7262 207.272 72.9878 196.012C69.8618 183.165 73.1809 168.664 82.3356 155.179L83.0612 155.672C74.0421 168.954 70.7714 183.204 73.8391 195.799C76.5193 206.808 83.9999 215.921 95.4571 222.141L95.0411 222.915Z" fill="#1E2128"/>
</g>
<mask id="mask35_1491_2552" style="mask-type:luminance" maskUnits="userSpaceOnUse" x="66" y="76" width="208" height="340">
<path d="M273.506 76.9473H66.1855V415.617H273.506V76.9473Z" fill="white"/>
</mask>
<g mask="url(#mask35_1491_2552)">
<path d="M96.2996 213.474C97.1126 214.121 99.648 216.308 100.674 216.482C101.622 216.647 106.886 216.869 106.732 217.971C106.577 219.132 102.986 218.233 103.025 219.171C103.045 219.751 110.051 221.638 109.344 222.867C108.88 223.669 104.796 221.947 104.719 222.46C104.641 222.924 110.118 223.999 109.489 225.227C108.832 226.514 103.567 223.273 103.296 223.882C103.161 224.183 109.557 226.484 109.025 227.471C108.309 228.787 103.393 225.537 103.015 226.117C102.832 226.398 104.767 227.239 105.86 227.887C106.47 228.245 106.277 228.787 105.793 228.768C100.848 228.545 94.6453 222.537 93.8615 222.257C92.6807 221.841 91.5384 221.397 90.4258 220.941L96.2904 213.493L96.2996 213.474Z" fill="white"/>
</g>
<mask id="mask36_1491_2552" style="mask-type:luminance" maskUnits="userSpaceOnUse" x="66" y="76" width="208" height="340">
<path d="M273.515 76.8857H66.1953V415.556H273.515V76.8857Z" fill="white"/>
</mask>
<g mask="url(#mask36_1491_2552)">
<path d="M96.4754 182.233L95.7207 181.788C98.0722 177.745 101.653 174.088 106.375 170.905L106.868 171.631C102.263 174.736 98.7687 178.296 96.4854 182.223L96.4754 182.233Z" fill="#1E2128"/>
</g>
<mask id="mask37_1491_2552" style="mask-type:luminance" maskUnits="userSpaceOnUse" x="66" y="76" width="208" height="340">
<path d="M273.668 76.8638H66.3477V415.534H273.668V76.8638Z" fill="white"/>
</mask>
<g mask="url(#mask37_1491_2552)">
<path d="M206.3 126.433C190.178 123.222 174.511 133.679 171.299 149.796C168.086 165.912 178.546 181.574 194.668 184.786C210.79 187.997 226.457 177.54 229.67 161.423C232.883 145.307 222.422 129.645 206.3 126.433ZM223.98 160.292C222.732 166.56 219.112 171.977 213.781 175.528C208.458 179.078 202.081 180.355 195.801 179.097C182.852 176.514 174.405 163.881 176.999 150.927C178.247 144.659 181.866 139.241 187.188 135.691C192.317 132.266 198.452 130.961 204.51 131.996C204.733 132.034 204.946 132.073 205.168 132.122C217.912 134.656 226.273 146.922 224.096 159.643C224.057 159.856 224.019 160.069 223.98 160.292Z" fill="#505C68"/>
</g>
<mask id="mask38_1491_2552" style="mask-type:luminance" maskUnits="userSpaceOnUse" x="66" y="76" width="208" height="340">
<path d="M273.664 76.8638H66.3438V415.534H273.664V76.8638Z" fill="white"/>
</mask>
<g mask="url(#mask38_1491_2552)">
<path d="M224.092 159.644C224.053 159.857 224.015 160.07 223.976 160.292C222.728 166.56 219.109 171.978 213.777 175.528C208.454 179.078 202.077 180.356 195.797 179.098C182.849 176.515 174.401 163.881 176.984 150.928C178.233 144.659 181.852 139.242 187.174 135.692C192.303 132.267 198.439 130.961 204.496 131.996C204.718 132.034 204.931 132.074 205.154 132.122C217.899 134.657 226.26 146.922 224.082 159.644H224.092Z" fill="#6D7D8D"/>
</g>
<mask id="mask39_1491_2552" style="mask-type:luminance" maskUnits="userSpaceOnUse" x="66" y="76" width="208" height="340">
<path d="M273.695 76.8545H66.375V415.525H273.695V76.8545Z" fill="white"/>
</mask>
<g mask="url(#mask39_1491_2552)">
<path d="M224.171 153.568C224.152 153.365 224.132 153.172 224.113 152.969C223.348 146.178 219.7 140.073 214.088 136.176L214.456 135.643C220.213 139.648 223.968 145.917 224.752 152.863C224.781 153.114 224.8 153.317 224.82 153.52L224.171 153.578V153.568Z" fill="#505C68"/>
</g>
<mask id="mask40_1491_2552" style="mask-type:luminance" maskUnits="userSpaceOnUse" x="66" y="76" width="208" height="340">
<path d="M273.677 76.8389H66.3574V415.509H273.677V76.8389Z" fill="white"/>
</mask>
<g mask="url(#mask40_1491_2552)">
<path d="M214.071 136.15C209.562 133.015 204.075 131.545 198.607 132.009L198.549 131.361C204.161 130.877 209.813 132.387 214.439 135.608L214.071 136.14V136.15Z" fill="#505C68"/>
</g>
<mask id="mask41_1491_2552" style="mask-type:luminance" maskUnits="userSpaceOnUse" x="66" y="76" width="208" height="340">
<path d="M273.699 76.8794H66.3789V415.549H273.699V76.8794Z" fill="white"/>
</mask>
<g mask="url(#mask41_1491_2552)">
<path d="M219.181 171.238L218.688 170.823C220.71 168.424 222.22 165.705 223.158 162.754L223.777 162.948C222.81 165.986 221.271 168.772 219.181 171.238Z" fill="#505C68"/>
</g>
<mask id="mask42_1491_2552" style="mask-type:luminance" maskUnits="userSpaceOnUse" x="66" y="76" width="208" height="340">
<path d="M273.697 76.8389H66.377V415.509H273.697V76.8389Z" fill="white"/>
</mask>
<g mask="url(#mask42_1491_2552)">
<path d="M223.34 137.04C221.414 134.67 219.14 132.619 216.596 130.955L216.973 130.375C219.586 132.078 221.908 134.176 223.882 136.605L223.34 137.04Z" fill="#505C68"/>
</g>
<mask id="mask43_1491_2552" style="mask-type:luminance" maskUnits="userSpaceOnUse" x="66" y="76" width="208" height="340">
<path d="M273.701 76.8745H66.3809V415.545H273.701V76.8745Z" fill="white"/>
</mask>
<g mask="url(#mask43_1491_2552)">
<path d="M212.865 183.075L212.574 182.436C221.235 178.537 227.515 170.663 229.364 161.357C230.515 155.581 229.925 149.661 227.651 144.253L228.289 143.983C230.612 149.526 231.222 155.572 230.041 161.492C228.145 171.011 221.719 179.079 212.855 183.065L212.865 183.075Z" fill="#505C68"/>
</g>
<mask id="mask44_1491_2552" style="mask-type:luminance" maskUnits="userSpaceOnUse" x="66" y="76" width="208" height="340">
<path d="M273.646 76.8394H66.3262V415.509H273.646V76.8394Z" fill="white"/>
</mask>
<g mask="url(#mask44_1491_2552)">
<path d="M181.516 139.711C184.235 141.094 186.102 143.204 187.38 145.864C188.657 143.213 190.535 141.085 193.253 139.701C190.535 138.318 188.657 136.21 187.38 133.549C186.102 136.2 184.235 138.328 181.516 139.711Z" fill="#3C619E"/>
</g>
<mask id="mask45_1491_2552" style="mask-type:luminance" maskUnits="userSpaceOnUse" x="66" y="76" width="208" height="340">
<path d="M273.679 76.8892H66.3594V415.559H273.679V76.8892Z" fill="white"/>
</mask>
<g mask="url(#mask45_1491_2552)">
<path d="M205.363 177.615C206.941 178.418 208.024 179.646 208.77 181.184C209.515 179.646 210.599 178.408 212.176 177.605C210.599 176.802 209.505 175.574 208.77 174.036C208.024 175.574 206.941 176.812 205.363 177.615Z" fill="#3C619E"/>
</g>
<mask id="mask46_1491_2552" style="mask-type:luminance" maskUnits="userSpaceOnUse" x="66" y="76" width="208" height="340">
<path d="M273.666 76.8599H66.3457V415.53H273.666V76.8599Z" fill="white"/>
</mask>
<g mask="url(#mask46_1491_2552)">
<path d="M184.916 153.214L196.3 164.19L215.446 145.73" stroke="white" stroke-width="7.1" stroke-linecap="round"/>
</g>
<path d="M13.5312 227.839C18.7945 230.471 22.4095 234.483 24.8819 239.545C27.3543 234.502 30.988 230.452 36.2512 227.821C30.988 225.189 27.3543 221.176 24.8819 216.115C22.4095 221.158 18.7945 225.207 13.5312 227.839Z" fill="#3C619E"/>
<path d="M49.7852 251.287C52.251 252.483 53.9453 254.313 55.1102 256.605C56.275 254.313 57.9693 252.469 60.4352 251.272C57.9693 250.076 56.2599 248.246 55.1102 245.955C53.9453 248.246 52.251 250.09 49.7852 251.287Z" fill="#3C619E"/>
<path d="M251.861 56.3346C248.573 56.658 245.764 58.423 243.192 60.3734C241.993 61.28 240.833 62.2363 239.633 63.1467C239.572 63.1952 239.541 63.2195 239.526 63.2316C239.499 63.2479 239.48 63.2602 239.468 63.2722C239.322 63.3776 239.176 63.483 239.026 63.5846C238.694 63.816 238.359 64.0395 238.016 64.2556C237.846 64.3616 237.672 64.4599 237.498 64.5582C237.475 64.5706 237.432 64.5912 237.398 64.6038C237.335 64.6288 237.277 64.6499 237.215 64.675C237.207 64.6752 237.199 64.6793 237.192 64.6834C237.196 64.6833 237.199 64.6832 237.204 64.6909C237.204 64.6909 237.188 64.6913 237.173 64.6917C237.11 64.7128 237.091 64.7094 237.098 64.7014C237.071 64.7021 237.048 64.7106 237.043 64.7145C237.009 64.7116 236.977 64.7046 236.941 64.6976C236.969 64.6969 236.952 64.6778 236.925 64.6629C236.961 64.6893 236.966 64.7283 236.869 64.6487C236.869 64.6487 236.862 64.6489 236.858 64.649C236.858 64.649 236.866 64.6488 236.869 64.6487C236.809 64.5956 236.749 64.5424 236.689 64.4931L236.669 64.478C236.624 64.4166 236.58 64.3591 236.539 64.2937C236.449 64.1553 236.371 64.0088 236.296 63.8582C236.259 63.781 236.225 63.7037 236.193 63.6303C236.18 63.6033 236.171 63.5839 236.164 63.5646C236.159 63.5452 236.15 63.522 236.142 63.4909C235.919 62.7305 235.711 61.9736 235.569 61.1915C235.427 60.4095 235.332 59.6185 235.273 58.8225C235.207 57.9526 235.197 57.4095 235.204 56.6314C235.23 53.3707 235.656 50.1309 235.799 46.8788C235.966 43.1415 235.728 39.4184 234.2 35.9555C233.959 35.4066 233.116 35.3737 232.644 35.4836C232.024 35.6324 231.338 36.084 231.116 36.7113C229.758 40.4676 228.404 44.2239 227.046 47.9802C226.915 48.3471 226.787 48.714 226.64 49.0735C226.574 49.2316 226.507 49.3896 226.432 49.544C226.395 49.6192 226.354 49.6946 226.317 49.7737C226.493 49.4369 226.297 49.7898 226.256 49.8418C226.248 49.8498 226.234 49.8736 226.214 49.8976C226.242 49.9164 226.243 49.9515 226.154 49.9812L226.15 49.9813C226.15 49.9813 226.173 49.9807 226.185 49.9803C226.173 49.9885 226.166 49.9926 226.154 50.0007L226.158 50.0006L226.189 49.9803C226.256 49.9669 226.287 49.9699 226.162 50.0005L226.135 50.0012V50.009V50.0168L226.131 50.0169L226.112 50.0292C226.077 50.0496 226.054 50.0658 226.05 50.0621C226.038 50.0506 226.05 50.0386 226.061 50.0266C226.069 50.0264 226.084 50.026 226.108 50.0175C226.084 50.0182 226.068 50.0185 226.065 50.0226C226.076 50.0144 226.084 50.0103 226.099 50.0021L226.079 49.9948C226.017 49.9965 226.025 49.9884 226.06 49.9875C226.032 49.9765 226.008 49.9693 226.012 49.9692C225.945 49.9475 225.834 49.8878 225.786 49.8694C225.547 49.7076 225.335 49.5254 225.122 49.3276C225.11 49.3162 225.089 49.2933 225.069 49.2742C225.036 49.236 225.005 49.1978 224.976 49.1594C224.879 49.0329 224.785 48.9063 224.696 48.7718C224.492 48.4643 224.307 48.1447 224.145 47.8127C224.071 47.6661 224.005 47.5154 223.942 47.3606C223.913 47.291 223.883 47.2174 223.854 47.144L223.845 47.1207C223.714 46.7332 223.609 46.3411 223.509 45.945C223.261 44.9976 223.025 44.046 222.793 43.0943C222.332 41.1908 221.903 39.2787 221.504 37.3579C220.712 33.5476 220.044 29.7145 219.503 25.8625C218.888 21.4964 218.433 17.1066 218.14 12.7088C218.082 11.8425 216.864 11.7176 216.243 11.9564C215.424 12.2708 214.775 12.952 214.834 13.8612C215.388 22.1417 216.51 30.3841 218.198 38.5104C218.614 40.5127 219.065 42.5103 219.548 44.4992C219.982 46.2783 220.328 48.1496 221.174 49.7891C221.826 51.0583 222.884 52.3875 224.336 52.7487C226.561 53.305 228.515 51.8709 229.489 49.9577C229.948 49.0585 230.236 48.066 230.577 47.1191C230.975 46.0143 231.374 44.9095 231.773 43.8047C231.96 43.2917 232.142 42.7789 232.329 42.2659C232.432 43.0685 232.488 43.8723 232.516 44.6807C232.518 44.7666 232.521 44.8487 232.523 44.9346L232.526 45.044C232.523 45.2395 232.524 45.431 232.526 45.6264C232.521 46.0643 232.513 46.5023 232.496 46.9405C232.374 50.2702 231.927 53.581 231.887 56.9124C231.868 58.6055 231.932 60.312 232.206 61.9858C232.467 63.5739 232.817 65.4412 233.934 66.6633C235.488 68.3666 237.971 67.3956 239.595 66.3531C240.987 65.4572 242.289 64.4269 243.584 63.4005C244.218 62.8995 244.843 62.3674 245.505 61.9007C245.448 61.9453 245.421 61.9655 245.575 61.8521C245.667 61.7871 245.756 61.7223 245.848 61.6574C246.013 61.5398 246.175 61.4262 246.344 61.3123C246.691 61.0766 247.046 60.8486 247.405 60.6322C247.76 60.4198 248.124 60.2188 248.495 60.0334C248.55 60.0085 248.604 59.9798 248.657 59.951C248.704 59.9341 248.751 59.9173 248.77 59.9051C248.949 59.8301 249.131 59.7551 249.309 59.6879C249.492 59.6207 249.675 59.5573 249.861 59.4978C249.943 59.4722 250.024 59.4466 250.11 59.4249C250.192 59.3993 250.278 59.3776 250.359 59.356C250.301 59.3692 250.239 59.3825 250.18 59.3957C250.524 59.2188 251.101 59.2235 251.48 59.1863C252.278 59.1071 253.267 58.3936 253.327 57.5399C253.39 56.6587 252.659 56.2477 251.857 56.3231L251.861 56.3346Z" fill="white"/>
<path d="M238.624 121.556C238.789 121.265 238.96 120.98 239.148 120.704C239.2 120.63 239.534 120.207 239.377 120.386C239.44 120.311 239.514 120.225 239.538 120.195C239.666 120.046 239.795 119.905 239.93 119.764C240.008 119.686 240.452 119.278 240.171 119.517C239.891 119.756 240.347 119.364 240.436 119.291C240.565 119.18 240.696 119.076 240.831 118.971C240.953 118.875 241.082 118.784 241.208 118.69C241.282 118.645 241.35 118.59 241.416 118.549C241.732 118.346 242.058 118.156 242.384 117.977C242.557 117.883 242.741 117.757 242.927 117.696C242.496 117.841 242.925 117.698 243.107 117.617C243.809 117.311 244.527 117.059 245.261 116.837C245.34 116.817 245.557 116.755 245.63 116.736C245.804 116.694 245.979 116.653 246.156 116.613C246.565 116.525 246.981 116.453 247.395 116.389C247.782 116.334 248.17 116.288 248.558 116.255C248.68 116.245 248.795 116.236 248.917 116.226C248.917 116.226 248.989 116.22 249.042 116.219C249.094 116.217 249.163 116.214 249.163 116.214C249.282 116.214 249.402 116.207 249.521 116.206C253.239 116.17 256.854 117.35 260.244 118.794C263.979 120.384 267.53 122.359 271.214 124.059C274.095 125.388 277.167 126.548 280.388 126.479C283.872 126.404 287.389 124.885 289.116 121.707C290.03 120.027 290.258 118.221 290.411 116.346C290.476 115.55 290.549 114.756 290.72 113.973C290.734 113.939 290.788 113.718 290.806 113.666C290.87 113.47 290.966 113.284 291.033 113.09C291.062 113.038 291.094 112.988 291.126 112.933C291.131 112.927 291.16 112.88 291.192 112.831C291.22 112.798 291.251 112.762 291.278 112.73C291.283 112.723 291.288 112.718 291.293 112.711C291.404 112.636 291.443 112.608 291.448 112.602C291.506 112.564 291.556 112.53 291.582 112.511C291.735 112.446 291.906 112.402 292.057 112.345C292.095 112.331 292.116 112.324 292.135 112.314C292.154 112.309 292.171 112.309 292.201 112.303C292.4 112.263 292.594 112.222 292.794 112.192C292.964 112.167 293.135 112.148 293.303 112.138C293.439 112.135 293.578 112.135 293.714 112.138C295.535 112.192 297.205 112.945 298.771 113.825C300.562 114.833 302.256 116.011 304.036 117.046C305.841 118.098 307.693 119.071 309.577 119.965C311.311 120.787 313.075 121.537 314.87 122.221C316.512 121.226 318.183 120.288 319.881 119.397C318.188 118.8 316.515 118.142 314.867 117.424C310.927 115.708 307.234 113.595 303.594 111.313C301.749 110.155 299.865 109.129 297.723 108.642C295.943 108.238 294.016 108.399 292.304 109.022C290.226 109.78 288.407 111.285 287.384 113.252C286.513 114.931 286.379 116.782 286.222 118.632C286.188 119.029 286.149 119.432 286.092 119.825C286.063 120.036 286.028 120.247 285.987 120.452C285.969 120.54 285.948 120.631 285.931 120.718C285.925 120.749 285.916 120.778 285.912 120.8C285.905 120.809 285.901 120.832 285.885 120.874C285.818 121.074 285.746 121.268 285.667 121.463C285.647 121.512 285.635 121.544 285.632 121.566C285.622 121.578 285.614 121.587 285.605 121.61C285.543 121.706 285.476 121.804 285.412 121.903C285.359 121.96 285.283 122.055 285.248 122.097C285.238 122.109 285.221 122.115 285.208 122.124C285.102 122.183 284.995 122.266 284.902 122.321L284.884 122.331C284.884 122.331 284.881 122.334 284.871 122.335C284.714 122.392 284.561 122.451 284.405 122.508C284.388 122.515 284.359 122.526 284.332 122.539C284.321 122.54 284.313 122.543 284.296 122.545C283.957 122.611 283.622 122.685 283.278 122.72C283.215 122.728 283.014 122.747 282.92 122.754C282.831 122.756 282.574 122.763 282.53 122.766C282.163 122.768 281.798 122.75 281.432 122.721C280.682 122.658 279.942 122.537 279.209 122.371C279.17 122.363 278.965 122.313 278.926 122.304C278.762 122.262 278.597 122.214 278.434 122.169C278.053 122.055 277.676 121.929 277.301 121.796C276.483 121.5 275.687 121.142 274.891 120.783C271.057 119.049 267.383 116.983 263.512 115.33C259.928 113.798 256.008 112.498 252.074 112.498C248.406 112.5 244.765 113.401 241.559 115.184C239.669 116.234 237.896 117.65 236.504 119.355C236.588 119.437 236.671 119.522 236.755 119.604C237.012 119.852 237.195 120.122 237.315 120.398C237.716 120.846 238.104 121.304 238.496 121.755C238.537 121.672 238.586 121.57 238.606 121.535L238.624 121.556Z" fill="#E03341"/>
</g>
<defs>
<clipPath id="clip0_1491_2552">
<rect width="320" height="295" fill="white"/>
</clipPath>
</defs>
</svg>
