<svg width="24" height="24" viewBox="0 0 24 24" fill="none" xmlns="http://www.w3.org/2000/svg">
<g id="Frame">
<path id="Vector" d="M21.4294 6L21.4294 18.8571L14.5723 20.5714L9.42941 18.8571L2.57227 20.5714L2.57227 7.71429" stroke="#323743" stroke-width="2.05714" stroke-miterlimit="10" stroke-linecap="square"/>
<path id="Vector_2" d="M17.1431 7.71415C17.1431 10.8881 12.0003 16.2856 12.0003 16.2856C12.0003 16.2856 6.85742 10.8881 6.85742 7.71415C6.85742 4.45957 9.51542 2.57129 12.0003 2.57129C14.4851 2.57129 17.1431 4.45957 17.1431 7.71415Z" stroke="#323743" stroke-width="2.05714" stroke-miterlimit="10" stroke-linecap="square"/>
<path id="Vector_3" d="M11.9997 8.57122C12.4731 8.57122 12.8569 8.18746 12.8569 7.71408C12.8569 7.24069 12.4731 6.85693 11.9997 6.85693C11.5263 6.85693 11.1426 7.24069 11.1426 7.71408C11.1426 8.18746 11.5263 8.57122 11.9997 8.57122Z" stroke="#323743" stroke-width="2.05714" stroke-miterlimit="10" stroke-linecap="square"/>
<path id="Vector_4" d="M11.9997 8.57122C12.4731 8.57122 12.8569 8.18746 12.8569 7.71408C12.8569 7.24069 12.4731 6.85693 11.9997 6.85693C11.5263 6.85693 11.1426 7.24069 11.1426 7.71408C11.1426 8.18746 11.5263 8.57122 11.9997 8.57122Z" fill="#323743"/>
</g>
</svg>
