<svg width="24" height="24" viewBox="0 0 24 24" fill="none" xmlns="http://www.w3.org/2000/svg">
<g id="clarity:tag-solid" clip-path="url(#clip0_1672_2912)">
<path id="Vector" d="M21.286 12.7998L11.5527 3.0665C11.43 2.94131 11.2838 2.84154 11.1225 2.77291C10.9612 2.70427 10.788 2.66811 10.6127 2.6665H3.99935C3.64573 2.6665 3.30659 2.80698 3.05654 3.05703C2.80649 3.30708 2.66602 3.64622 2.66602 3.99984V10.6132C2.6675 10.9662 2.80896 11.3043 3.05935 11.5532L12.7927 21.2865C12.9165 21.4105 13.0636 21.5088 13.2254 21.5759C13.3873 21.643 13.5608 21.6776 13.736 21.6776C13.9112 21.6776 14.0847 21.643 14.2466 21.5759C14.4085 21.5088 14.5555 21.4105 14.6793 21.2865L21.2794 14.6865C21.4038 14.5631 21.5026 14.4164 21.5703 14.2548C21.638 14.0932 21.6731 13.9198 21.6737 13.7446C21.6744 13.5693 21.6404 13.3957 21.5739 13.2336C21.5074 13.0715 21.4095 12.9241 21.286 12.7998ZM6.43268 7.53984C6.2138 7.53984 5.99984 7.47493 5.81785 7.35333C5.63586 7.23173 5.49402 7.05889 5.41026 6.85667C5.32649 6.65446 5.30458 6.43194 5.34728 6.21727C5.38998 6.0026 5.49538 5.80541 5.65015 5.65064C5.80492 5.49587 6.00211 5.39047 6.21678 5.34777C6.43145 5.30507 6.65397 5.32698 6.85619 5.41074C7.0584 5.4945 7.23124 5.63635 7.35284 5.81834C7.47444 6.00033 7.53935 6.21429 7.53935 6.43317C7.53935 6.72668 7.42275 7.00816 7.21521 7.2157C7.00767 7.42324 6.72619 7.53984 6.43268 7.53984Z" fill="#3C619E"/>
</g>
<defs>
<clipPath id="clip0_1672_2912">
<rect width="24" height="24" fill="white"/>
</clipPath>
</defs>
</svg>
