<svg width="17" height="13" viewBox="0 0 17 13" fill="none" xmlns="http://www.w3.org/2000/svg">
<path id="Vector" d="M0.410756 5.53698C0.147736 5.79238 0 6.13858 0 6.49955C0 6.86051 0.147736 7.20671 0.410756 7.46211L5.70673 12.6009C5.97021 12.8564 6.32757 13 6.70019 13C7.07281 13 7.43017 12.8564 7.69366 12.6009C7.95714 12.3454 8.10516 11.9988 8.10516 11.6374C8.10516 11.2761 7.95714 10.9295 7.69366 10.674L4.79473 7.86166L15.5955 7.86166C15.968 7.86166 16.3252 7.71815 16.5886 7.46271C16.852 7.20726 17 6.8608 17 6.49955C17 6.13829 16.852 5.79183 16.5886 5.53638C16.3252 5.28094 15.968 5.13743 15.5955 5.13743L4.79473 5.13743L7.69366 2.32602C7.82412 2.1995 7.92761 2.04929 7.99821 1.88398C8.06882 1.71867 8.10516 1.54149 8.10516 1.36255C8.10516 1.18362 8.06882 1.00644 7.99821 0.841126C7.92761 0.675814 7.82412 0.525606 7.69366 0.399082C7.56319 0.272557 7.40831 0.172194 7.23785 0.103719C7.06739 0.035244 6.8847 0 6.70019 0C6.51569 0 6.33299 0.035244 6.16253 0.103719C5.99208 0.172194 5.83719 0.272557 5.70673 0.399082L0.410756 5.53698Z" fill="#2D2D2D"/>
</svg>
