<svg width="20" height="20" viewBox="0 0 20 20" fill="none" xmlns="http://www.w3.org/2000/svg">
<path id="Vector" d="M4.29063 0C1.92456 0 0.00491333 1.67969 0.00491333 3.75V16.25C0.00491333 18.3203 1.92456 20 4.29063 20H17.1478H18.5763C19.3665 20 20.0049 19.4414 20.0049 18.75C20.0049 18.0586 19.3665 17.5 18.5763 17.5V15C19.3665 15 20.0049 14.4414 20.0049 13.75V1.25C20.0049 0.558594 19.3665 0 18.5763 0H17.1478H4.29063ZM4.29063 15H15.7192V17.5H4.29063C3.50045 17.5 2.86206 16.9414 2.86206 16.25C2.86206 15.5586 3.50045 15 4.29063 15ZM5.7192 5.625C5.7192 5.28125 6.04063 5 6.43349 5H15.0049C15.3978 5 15.7192 5.28125 15.7192 5.625C15.7192 5.96875 15.3978 6.25 15.0049 6.25H6.43349C6.04063 6.25 5.7192 5.96875 5.7192 5.625ZM6.43349 7.5H15.0049C15.3978 7.5 15.7192 7.78125 15.7192 8.125C15.7192 8.46875 15.3978 8.75 15.0049 8.75H6.43349C6.04063 8.75 5.7192 8.46875 5.7192 8.125C5.7192 7.78125 6.04063 7.5 6.43349 7.5Z" fill="#2D2D2D"/>
</svg>
