<svg width="20" height="20" viewBox="0 0 20 20" fill="none" xmlns="http://www.w3.org/2000/svg">
<path d="M3.07125 0.195777C2.70018 -0.0932782 2.17286 -0.0581228 1.83694 0.273901L0.274529 1.83636C-0.0574836 2.16839 -0.0926379 2.69572 0.192503 3.07071L3.31733 7.13312C3.4931 7.36358 3.77043 7.50029 4.05948 7.50029H6.17264L10.4302 11.758C9.85603 12.8908 10.0396 14.3126 10.9888 15.2579L15.3635 19.6328C15.8518 20.1211 16.6447 20.1211 17.133 19.6328L19.6328 17.1329C20.1211 16.6446 20.1211 15.8517 19.6328 15.3634L15.2581 10.9885C14.3128 10.0432 12.891 9.85571 11.7583 10.4299L7.50069 6.1722V4.06287C7.50069 3.76991 7.36398 3.49648 7.13352 3.3207L3.07125 0.195777ZM0.778408 15.4728C0.282341 15.9688 0.00110689 16.6446 0.00110689 17.3477C0.00110689 18.8125 1.18854 20 2.6533 20C3.35639 20 4.03213 19.7188 4.5282 19.2227L9.12951 14.6212C8.82484 13.8048 8.77797 12.9181 8.98889 12.0783L6.57887 9.66821L0.778408 15.4728ZM20 5.62534C20 5.21519 19.957 4.81676 19.875 4.43396C19.7813 3.99647 19.2461 3.88319 18.9297 4.19959L16.4338 6.69562C16.3166 6.81281 16.1565 6.87921 15.9924 6.87921H13.7503C13.4066 6.87921 13.1254 6.59797 13.1254 6.25423V4.00819C13.1254 3.84413 13.1918 3.68398 13.309 3.56679L15.8049 1.07076C16.1213 0.754358 16.008 0.219214 15.5706 0.125467C15.1839 0.0434373 14.7854 0.000469565 14.3753 0.000469565C11.27 0.000469565 8.75062 2.51994 8.75062 5.62534V5.65659L12.0825 8.98854C13.4886 8.63308 15.0432 9.00807 16.1447 10.1096L16.758 10.7229C18.6719 9.82446 20 7.87919 20 5.62534ZM2.18849 16.8751C2.18849 16.6264 2.28725 16.388 2.46306 16.2122C2.63886 16.0364 2.87731 15.9376 3.12593 15.9376C3.37456 15.9376 3.613 16.0364 3.78881 16.2122C3.96462 16.388 4.06338 16.6264 4.06338 16.8751C4.06338 17.1237 3.96462 17.3622 3.78881 17.538C3.613 17.7138 3.37456 17.8126 3.12593 17.8126C2.87731 17.8126 2.63886 17.7138 2.46306 17.538C2.28725 17.3622 2.18849 17.1237 2.18849 16.8751Z" fill="#2D2D2D"/>
</svg>
