<svg width="24" height="24" viewBox="0 0 24 24" fill="none" xmlns="http://www.w3.org/2000/svg">
<g id="Cart">
<path id="Vector" d="M0.00659652 0.856959C0.00659652 0.62968 0.0968787 0.411708 0.257582 0.250997C0.418285 0.0902863 0.636244 0 0.863513 0H1.61417C2.86013 0 3.57651 0.810683 3.99126 1.61965C4.27404 2.17325 4.47799 2.84853 4.64766 3.43469H22.2916C22.5564 3.43477 22.8176 3.49622 23.0546 3.61421C23.2917 3.73221 23.4982 3.90354 23.658 4.11477C23.8177 4.32599 23.9263 4.57136 23.9753 4.83162C24.0243 5.09188 24.0123 5.35995 23.9403 5.6148L21.3764 14.6557C21.1724 15.373 20.7401 16.0042 20.1451 16.4536C19.55 16.903 18.8246 17.1461 18.079 17.146H9.3744C8.6225 17.1463 7.89138 16.8993 7.29367 16.4431C6.69596 15.9869 6.26483 15.3468 6.06671 14.6214L4.96643 10.5852C4.96012 10.5671 4.9544 10.5488 4.94929 10.5303L3.18233 4.53674L3.01094 3.95915C2.83956 3.36614 2.68874 2.84168 2.46252 2.4012C2.19002 1.86988 1.9398 1.71563 1.61246 1.71563H0.861799C0.634531 1.71563 0.41657 1.62535 0.255868 1.46463C0.0951646 1.30392 0.00488281 1.08595 0.00488281 0.858673L0.00659652 0.856959ZM6.60142 10.0676L7.72056 14.1741C7.81978 14.5366 8.03541 14.8565 8.33425 15.0844C8.63309 15.3124 8.99857 15.4357 9.3744 15.4355H18.0807C18.4533 15.4352 18.8157 15.3133 19.1129 15.0885C19.4101 14.8636 19.6259 14.5481 19.7277 14.1895L22.2916 5.14861H5.15324L6.60142 10.0676ZM12.0086 21.4291C12.0086 22.111 11.7377 22.7649 11.2556 23.247C10.7735 23.7291 10.1196 24 9.43782 24C8.75601 24 8.10213 23.7291 7.62002 23.247C7.13791 22.7649 6.86707 22.111 6.86707 21.4291C6.86707 20.7473 7.13791 20.0934 7.62002 19.6112C8.10213 19.1291 8.75601 18.8582 9.43782 18.8582C10.1196 18.8582 10.7735 19.1291 11.2556 19.6112C11.7377 20.0934 12.0086 20.7473 12.0086 21.4291ZM10.2947 21.4291C10.2947 21.2018 10.2045 20.9839 10.0437 20.8232C9.88305 20.6624 9.66508 20.5722 9.43782 20.5722C9.21055 20.5722 8.99259 20.6624 8.83188 20.8232C8.67118 20.9839 8.5809 21.2018 8.5809 21.4291C8.5809 21.6564 8.67118 21.8744 8.83188 22.0351C8.99259 22.1958 9.21055 22.2861 9.43782 22.2861C9.66508 22.2861 9.88305 22.1958 10.0437 22.0351C10.2045 21.8744 10.2947 21.6564 10.2947 21.4291ZM20.5777 21.4291C20.5777 22.111 20.3069 22.7649 19.8248 23.247C19.3427 23.7291 18.6888 24 18.007 24C17.3252 24 16.6713 23.7291 16.1892 23.247C15.7071 22.7649 15.4362 22.111 15.4362 21.4291C15.4362 20.7473 15.7071 20.0934 16.1892 19.6112C16.6713 19.1291 17.3252 18.8582 18.007 18.8582C18.6888 18.8582 19.3427 19.1291 19.8248 19.6112C20.3069 20.0934 20.5777 20.7473 20.5777 21.4291ZM18.8639 21.4291C18.8639 21.2018 18.7736 20.9839 18.6129 20.8232C18.4522 20.6624 18.2342 20.5722 18.007 20.5722C17.7797 20.5722 17.5618 20.6624 17.401 20.8232C17.2403 20.9839 17.1501 21.2018 17.1501 21.4291C17.1501 21.6564 17.2403 21.8744 17.401 22.0351C17.5618 22.1958 17.7797 22.2861 18.007 22.2861C18.2342 22.2861 18.4522 22.1958 18.6129 22.0351C18.7736 21.8744 18.8639 21.6564 18.8639 21.4291Z" fill="#2D2D2D"/>
</g>
</svg>
