<svg width="16" height="17" viewBox="0 0 16 17" fill="none" xmlns="http://www.w3.org/2000/svg">
<g id="gg:check-o">
<g id="Group">
<path id="Vector" d="M6.82867 11.376L4 8.54668L4.94267 7.60402L6.82867 9.48935L10.5993 5.71802L11.5427 6.66135L6.82867 11.3747V11.376Z" fill="#545454"/>
<path id="Vector_2" fill-rule="evenodd" clip-rule="evenodd" d="M0.666748 8.49996C0.666748 4.44996 3.95008 1.16663 8.00008 1.16663C12.0501 1.16663 15.3334 4.44996 15.3334 8.49996C15.3334 12.55 12.0501 15.8333 8.00008 15.8333C3.95008 15.8333 0.666748 12.55 0.666748 8.49996ZM8.00008 14.5C7.21215 14.5 6.43193 14.3448 5.70398 14.0432C4.97603 13.7417 4.31459 13.2998 3.75744 12.7426C3.20029 12.1854 2.75833 11.524 2.4568 10.7961C2.15528 10.0681 2.00008 9.28789 2.00008 8.49996C2.00008 7.71203 2.15528 6.93181 2.4568 6.20386C2.75833 5.47591 3.20029 4.81447 3.75744 4.25732C4.31459 3.70017 4.97603 3.25821 5.70398 2.95668C6.43193 2.65515 7.21215 2.49996 8.00008 2.49996C9.59138 2.49996 11.1175 3.1321 12.2427 4.25732C13.3679 5.38254 14.0001 6.90866 14.0001 8.49996C14.0001 10.0913 13.3679 11.6174 12.2427 12.7426C11.1175 13.8678 9.59138 14.5 8.00008 14.5Z" fill="#545454"/>
</g>
</g>
</svg>
