<svg width="24" height="24" viewBox="0 0 24 24" fill="none" xmlns="http://www.w3.org/2000/svg">
<g id="clarity:search-line" clip-path="url(#clip0_20_54)">
<path id="Vector" d="M10.8915 3.36667C12.3356 3.36535 13.7476 3.79236 14.949 4.5937C16.1504 5.39503 17.0871 6.53467 17.6406 7.86846C18.1941 9.20224 18.3397 10.6702 18.0587 12.0867C17.7778 13.5032 17.0831 14.8046 16.0624 15.8262C15.0418 16.8478 13.741 17.5437 12.3248 17.8259C10.9086 18.1081 9.44043 17.9639 8.10614 17.4116C6.77185 16.8593 5.63136 15.9236 4.82893 14.723C4.0265 13.5224 3.59819 12.1108 3.59819 10.6667C3.60695 8.73444 4.37795 6.88374 5.74363 5.51681C7.10931 4.14988 8.9593 3.37719 10.8915 3.36667ZM10.8915 2C9.17742 2 7.50181 2.50829 6.07658 3.4606C4.65136 4.4129 3.54053 5.76645 2.88457 7.35008C2.22861 8.9337 2.05698 10.6763 2.39138 12.3575C2.72579 14.0386 3.55121 15.5829 4.76327 16.7949C5.97532 18.007 7.51957 18.8324 9.20074 19.1668C10.8819 19.5012 12.6245 19.3296 14.2081 18.6736C15.7917 18.0177 17.1453 16.9068 18.0976 15.4816C19.0499 14.0564 19.5582 12.3808 19.5582 10.6667C19.5582 8.36812 18.6451 6.16372 17.0198 4.53841C15.3945 2.91309 13.1901 2 10.8915 2Z" fill="#2D2D2D"/>
<path id="Vector_2" d="M23.7489 21.6917L17.2559 16L16.0049 17.0816L22.4979 22.7733C22.5794 22.8448 22.6764 22.9016 22.7832 22.9405C22.89 22.9794 23.0045 22.9996 23.1203 23C23.236 23.0004 23.3507 22.9809 23.4578 22.9426C23.5649 22.9044 23.6623 22.8481 23.7445 22.7771C23.8266 22.7061 23.8919 22.6217 23.9366 22.5287C23.9813 22.4357 24.0045 22.336 24.0049 22.2352C24.0053 22.1344 23.9829 22.0345 23.939 21.9413C23.895 21.848 23.8305 21.7632 23.7489 21.6917Z" fill="#2D2D2D"/>
</g>
<defs>
<clipPath id="clip0_20_54">
<rect width="24" height="24" fill="white" transform="translate(0.00488281)"/>
</clipPath>
</defs>
</svg>
