<svg width="20" height="20" viewBox="0 0 20 20" fill="none" xmlns="http://www.w3.org/2000/svg">
<g id="Delete forever 2">
<path id="Vector" d="M18 5C18 4.73478 17.8946 4.48043 17.7071 4.29289C17.5196 4.10536 17.2652 4 17 4L13 4V3C13 2.73478 12.8946 2.48043 12.7071 2.29289C12.5196 2.10536 12.2652 2 12 2L8 2C7.73478 2 7.48043 2.10536 7.29289 2.29289C7.10536 2.48043 7 2.73478 7 3L7 4L3 4C2.73478 4 2.48043 4.10536 2.29289 4.29289C2.10536 4.48043 2 4.73478 2 5C2 5.26522 2.10536 5.51957 2.29289 5.70711C2.48043 5.89464 2.73478 6 3 6L17 6C17.2652 6 17.5196 5.89464 17.7071 5.70711C17.8946 5.51957 18 5.26522 18 5Z" fill="#DE3B40"/>
<path id="Vector_2" d="M4 7L4 16C4 16.5304 4.21071 17.0391 4.58579 17.4142C4.96086 17.7893 5.46957 18 6 18H14C14.5304 18 15.0391 17.7893 15.4142 17.4142C15.7893 17.0391 16 16.5304 16 16L16 7L4 7ZM13.06 14.854L12.354 15.56C12.3076 15.6066 12.2524 15.6435 12.1916 15.6687C12.1309 15.6939 12.0658 15.7069 12 15.7069C11.9342 15.7069 11.8691 15.6939 11.8084 15.6687C11.7476 15.6435 11.6924 15.6066 11.646 15.56L10 13.914L8.354 15.56C8.30755 15.6066 8.25238 15.6435 8.19163 15.6687C8.13089 15.6939 8.06577 15.7069 8 15.7069C7.93423 15.7069 7.86911 15.6939 7.80837 15.6687C7.74762 15.6435 7.69245 15.6066 7.646 15.56L6.94 14.854C6.89344 14.8076 6.85649 14.7524 6.83129 14.6916C6.80608 14.6309 6.79311 14.5658 6.79311 14.5C6.79311 14.4342 6.80608 14.3691 6.83129 14.3084C6.85649 14.2476 6.89344 14.1924 6.94 14.146L8.586 12.5L6.94 10.854C6.89344 10.8076 6.85649 10.7524 6.83129 10.6916C6.80608 10.6309 6.79311 10.5658 6.79311 10.5C6.79311 10.4342 6.80608 10.3691 6.83129 10.3084C6.85649 10.2476 6.89344 10.1924 6.94 10.146L7.646 9.44C7.69245 9.39344 7.74762 9.35649 7.80837 9.33129C7.86911 9.30608 7.93423 9.29311 8 9.29311C8.06577 9.29311 8.13089 9.30608 8.19163 9.33129C8.25238 9.35649 8.30755 9.39344 8.354 9.44L10 11.086L11.646 9.44C11.6924 9.39344 11.7476 9.35649 11.8084 9.33129C11.8691 9.30608 11.9342 9.29311 12 9.29311C12.0658 9.29311 12.1309 9.30608 12.1916 9.33129C12.2524 9.35649 12.3076 9.39344 12.354 9.44L13.06 10.146C13.1066 10.1924 13.1435 10.2476 13.1687 10.3084C13.1939 10.3691 13.2069 10.4342 13.2069 10.5C13.2069 10.5658 13.1939 10.6309 13.1687 10.6916C13.1435 10.7524 13.1066 10.8076 13.06 10.854L11.414 12.5L13.06 14.146C13.1066 14.1924 13.1435 14.2476 13.1687 14.3084C13.1939 14.3691 13.2069 14.4342 13.2069 14.5C13.2069 14.5658 13.1939 14.6309 13.1687 14.6916C13.1435 14.7524 13.1066 14.8076 13.06 14.854Z" fill="#DE3B40"/>
</g>
</svg>
