<svg width="24" height="20" viewBox="0 0 24 20" fill="none" xmlns="http://www.w3.org/2000/svg">
<path id="Vector" d="M7.80559 13.75C12.1145 13.75 15.6059 10.6719 15.6059 6.875C15.6059 3.07812 12.1145 0 7.80559 0C3.49669 0 0.00532376 3.07812 0.00532376 6.875C0.00532376 8.38281 0.556592 9.77734 1.49037 10.9141C1.35912 11.2812 1.16411 11.6055 0.957856 11.8789C0.77785 12.1211 0.594094 12.3086 0.459089 12.4375C0.391587 12.5 0.335335 12.5508 0.297834 12.582C0.279083 12.5977 0.264082 12.6094 0.256582 12.6133L0.249082 12.6211C0.042825 12.7812 -0.047178 13.0625 0.0353248 13.3164C0.117828 13.5703 0.346585 13.75 0.605344 13.75C1.42287 13.75 2.2479 13.5312 2.93417 13.2617C3.27918 13.125 3.6017 12.9727 3.88296 12.8164C5.03424 13.4102 6.37304 13.75 7.80559 13.75ZM16.8059 6.875C16.8059 11.2617 13.0895 14.5664 8.68687 14.9609C9.59815 17.8672 12.6208 20 16.2059 20C17.6384 20 18.9772 19.6602 20.1323 19.0664C20.4135 19.2227 20.7323 19.375 21.0773 19.5117C21.7636 19.7812 22.5886 20 23.4061 20C23.6649 20 23.8974 19.8242 23.9761 19.5664C24.0549 19.3086 23.9686 19.0273 23.7586 18.8672L23.7511 18.8594C23.7436 18.8516 23.7286 18.8438 23.7099 18.8281C23.6724 18.7969 23.6161 18.75 23.5486 18.6836C23.4136 18.5547 23.2299 18.3672 23.0499 18.125C22.8436 17.8516 22.6486 17.5234 22.5173 17.1602C23.4511 16.0273 24.0024 14.6328 24.0024 13.1211C24.0024 9.49609 20.8185 6.52344 16.7796 6.26562C16.7946 6.46484 16.8021 6.66797 16.8021 6.87109L16.8059 6.875Z" fill="#2D2D2D"/>
</svg>
