<svg width="24" height="24" viewBox="0 0 24 24" fill="none" xmlns="http://www.w3.org/2000/svg">
<g id="solar:cpu-bolt-broken">
<g id="Group">
<path id="Vector" d="M12.429 10L11 12H13L11.571 14" stroke="white" stroke-width="1.5" stroke-linecap="round" stroke-linejoin="round"/>
<path id="Vector_2" d="M4 12C4 8.229 4 6.343 5.172 5.172C6.343 4 8.229 4 12 4C15.771 4 17.657 4 18.828 5.172C20 6.343 20 8.229 20 12C20 15.771 20 17.657 18.828 18.828C17.657 20 15.771 20 12 20C8.229 20 6.343 20 5.172 18.828C4 17.657 4 15.771 4 12Z" stroke="white" stroke-width="1.5"/>
<path id="Vector_3" d="M4 12H2M22 12H20M4 9H2M22 9H20M4 15H2M22 15H20M12 20V22M12 2V4M9 20V22M9 2V4M15 20V22M15 2V4M17 14C17 15.414 17 16.121 16.56 16.56C16.121 17 15.414 17 14 17H10C8.586 17 7.879 17 7.44 16.56C7 16.122 7 15.415 7 14V10C7 8.586 7 7.879 7.44 7.44C7.878 7 8.585 7 10 7H14C15.414 7 16.121 7 16.56 7.44C17 7.879 17 8.586 17 10" stroke="white" stroke-width="1.5" stroke-linecap="round"/>
</g>
</g>
</svg>
