<svg width="24" height="24" viewBox="0 0 24 24" fill="none" xmlns="http://www.w3.org/2000/svg">
<g id="fluent:ram-16-regular">
<path id="Vector" d="M5.25 7.5H18.75C18.9489 7.5 19.1397 7.57902 19.2803 7.71967C19.421 7.86032 19.5 8.05109 19.5 8.25V12.75C19.5 12.9489 19.421 13.1397 19.2803 13.2803C19.1397 13.421 18.9489 13.5 18.75 13.5H5.25C5.05109 13.5 4.86032 13.421 4.71967 13.2803C4.57902 13.1397 4.5 12.9489 4.5 12.75V8.25C4.5 8.05109 4.57902 7.86032 4.71967 7.71967C4.86032 7.57902 5.05109 7.5 5.25 7.5ZM13.5 12V9H10.5V12H13.5ZM9 9H6V12H9V9ZM15 12H18V9H15V12ZM4.5 4.5H19.5C21.1545 4.5 22.5 5.8455 22.5 7.5V13.5C22.4997 14.0263 22.361 14.5433 22.0977 14.9991C21.8344 15.4549 21.4558 15.8333 21 16.0965V17.625C21 18.6585 20.1585 19.5 19.125 19.5H14.25C14.1514 19.5002 14.0538 19.4809 13.9627 19.4433C13.8716 19.4058 13.7888 19.3506 13.719 19.281L12 17.562L10.281 19.281C10.1397 19.421 9.94892 19.4997 9.75 19.5H4.875C3.8415 19.5 3 18.6585 3 17.625V16.0965C2.54417 15.8333 2.16561 15.4549 1.90232 14.9991C1.63903 14.5433 1.50028 14.0263 1.5 13.5V7.5C1.5 5.8455 2.8455 4.5 4.5 4.5ZM4.875 18H9.4395L10.9395 16.5H4.5V17.625C4.5 17.832 4.668 18 4.875 18ZM19.125 18C19.2245 18 19.3198 17.9605 19.3902 17.8902C19.4605 17.8198 19.5 17.7245 19.5 17.625V16.5H13.0605L14.5605 18H19.125ZM19.5 15C20.328 15 21 14.3265 21 13.5V7.5C21 6.6735 20.328 6 19.5 6H4.5C3.672 6 3 6.6735 3 7.5V13.5C3 14.3265 3.672 15 4.5 15H19.5Z" fill="white"/>
</g>
</svg>
