<svg width="24" height="24" viewBox="0 0 24 24" fill="none" xmlns="http://www.w3.org/2000/svg">
<g id="clarity:ssd-line" clip-path="url(#clip0_605_930)">
<path id="Vector" d="M21.333 4H2.66634C2.31272 4 1.97358 4.14048 1.72353 4.39052C1.47348 4.64057 1.33301 4.97971 1.33301 5.33333V18.6667C1.33301 19.0203 1.47348 19.3594 1.72353 19.6095C1.97358 19.8595 2.31272 20 2.66634 20H21.333C21.6866 20 22.0258 19.8595 22.2758 19.6095C22.5259 19.3594 22.6663 19.0203 22.6663 18.6667V5.33333C22.6663 4.97971 22.5259 4.64057 22.2758 4.39052C22.0258 4.14048 21.6866 4 21.333 4ZM21.333 18.6667H2.66634V5.33333H21.333V18.6667Z" fill="white"/>
<path id="Vector_2" d="M4.13997 7.66667C4.60021 7.66667 4.97331 7.29357 4.97331 6.83333C4.97331 6.3731 4.60021 6 4.13997 6C3.67974 6 3.30664 6.3731 3.30664 6.83333C3.30664 7.29357 3.67974 7.66667 4.13997 7.66667Z" fill="white"/>
<path id="Vector_3" d="M19.8734 7.66667C20.3336 7.66667 20.7067 7.29357 20.7067 6.83333C20.7067 6.3731 20.3336 6 19.8734 6C19.4131 6 19.04 6.3731 19.04 6.83333C19.04 7.29357 19.4131 7.66667 19.8734 7.66667Z" fill="white"/>
<path id="Vector_4" d="M4.13997 17.78C4.60021 17.78 4.97331 17.4069 4.97331 16.9467C4.97331 16.4864 4.60021 16.1133 4.13997 16.1133C3.67974 16.1133 3.30664 16.4864 3.30664 16.9467C3.30664 17.4069 3.67974 17.78 4.13997 17.78Z" fill="white"/>
<path id="Vector_5" d="M19.8734 17.78C20.3336 17.78 20.7067 17.4069 20.7067 16.9467C20.7067 16.4864 20.3336 16.1133 19.8734 16.1133C19.4131 16.1133 19.04 16.4864 19.04 16.9467C19.04 17.4069 19.4131 17.78 19.8734 17.78Z" fill="white"/>
<path id="Vector_6" d="M6.66637 12.4133C7.54637 12.62 7.9397 12.7733 7.9397 13.2267C7.9397 13.68 7.58637 13.9533 6.90637 13.9533C6.23225 13.9439 5.58673 13.6795 5.0997 13.2133L4.52637 13.92C5.16224 14.5123 6.00427 14.8328 6.87303 14.8133C8.20637 14.8133 8.9397 14.1467 8.9397 13.1333C8.9397 12.12 8.17303 11.7667 7.02637 11.5067C6.15303 11.3067 5.74637 11.1467 5.74637 10.7C5.77941 10.487 5.8937 10.2951 6.06525 10.1645C6.2368 10.034 6.45226 9.97503 6.66637 9.99999C7.25608 10.0249 7.81704 10.2616 8.24637 10.6667L8.78637 9.93333C8.2095 9.40219 7.4504 9.11335 6.66637 9.12666C5.50637 9.12666 4.66637 9.82666 4.66637 10.7867C4.66637 11.7467 5.50637 12.1467 6.66637 12.4133Z" fill="white"/>
<path id="Vector_7" d="M11.8868 13.9534C11.2127 13.9439 10.5672 13.6795 10.0802 13.2134L9.50684 13.92C10.1427 14.5123 10.9847 14.8328 11.8535 14.8134C13.1868 14.8134 13.9202 14.1467 13.9202 13.1334C13.9202 12.12 13.1535 11.7667 12.0002 11.5067C11.1268 11.3067 10.7202 11.1467 10.7202 10.7C10.7532 10.4844 10.8694 10.2903 11.0439 10.1595C11.2184 10.0286 11.4373 9.97134 11.6535 10C12.2432 10.0249 12.8042 10.2616 13.2335 10.6667L13.7735 9.93336C13.2014 9.42511 12.4586 9.15133 11.6935 9.16669C10.5402 9.16669 9.6935 9.86669 9.6935 10.8267C9.6935 11.7867 10.4868 12.16 11.6202 12.4534C12.5002 12.66 12.8935 12.8134 12.8935 13.2667C12.8935 13.72 12.5668 13.9534 11.8868 13.9534Z" fill="white"/>
<path id="Vector_8" d="M19.9329 12C19.9329 10.3934 18.6529 9.25336 16.8396 9.25336H14.9062V14.7467H16.8396C18.6662 14.72 19.9329 13.58 19.9329 12ZM15.9329 10.16H16.9729C17.2243 10.1449 17.4761 10.1814 17.7129 10.2672C17.9497 10.3529 18.1664 10.4863 18.3498 10.6589C18.5331 10.8316 18.6792 11.0399 18.7791 11.2711C18.879 11.5023 18.9305 11.7515 18.9305 12.0034C18.9305 12.2552 18.879 12.5044 18.7791 12.7356C18.6792 12.9668 18.5331 13.1751 18.3498 13.3478C18.1664 13.5204 17.9497 13.6538 17.7129 13.7396C17.4761 13.8254 17.2243 13.8618 16.9729 13.8467H15.9062L15.9329 10.16Z" fill="white"/>
</g>
<defs>
<clipPath id="clip0_605_930">
<rect width="24" height="24" fill="white"/>
</clipPath>
</defs>
</svg>
